<mxfile host="app.diagrams.net" modified="2023-11-14T18:48:14.271Z" agent="Mozilla/5.0 (X11; Linux x86_64) AppleWebKit/537.36 (KHTML, like Gecko) Chrome/114.0.0.0 Safari/537.36" etag="PGFh8RKHMGY0o_xcPUpw" version="22.1.1" type="github" pages="4">
  <diagram name="Exercise 1" id="sMuEwo57DOW2Laynuzo8">
    <mxGraphModel dx="1434" dy="769" grid="1" gridSize="10" guides="1" tooltips="1" connect="1" arrows="1" fold="1" page="1" pageScale="1" pageWidth="980" pageHeight="690" math="0" shadow="0">
      <root>
        <mxCell id="0" />
        <mxCell id="1" parent="0" />
        <mxCell id="msZfLE7CyJCTbzsIFVeG-1" value="&lt;ol style=&quot;font-size: medium; text-align: start; line-height: 10%;&quot;&gt;&lt;li&gt;&lt;p style=&quot;margin-bottom: 0cm; line-height: 10%; background: transparent;&quot; align=&quot;left&quot;&gt;&lt;font color=&quot;#434343&quot;&gt;&lt;font face=&quot;Times New Roman, serif&quot;&gt;&lt;font style=&quot;font-size: 12pt;&quot;&gt;&lt;b&gt;Create a diagram with the School and Person entities.&lt;/b&gt;&lt;/font&gt;&lt;/font&gt;&lt;/font&gt;&lt;/p&gt;&lt;ol style=&quot;line-height: 10%;&quot; type=&quot;a&quot;&gt;&lt;li&gt;&lt;p style=&quot;margin-bottom: 0cm; line-height: 10%; background: transparent;&quot; align=&quot;left&quot;&gt;&lt;font color=&quot;#434343&quot;&gt;&lt;font face=&quot;Times New Roman, serif&quot;&gt;&lt;font style=&quot;font-size: 12pt;&quot;&gt;School: name, schoolid&lt;/font&gt;&lt;/font&gt;&lt;/font&gt;&lt;/p&gt;&lt;/li&gt;&lt;li&gt;&lt;p style=&quot;margin-bottom: 0cm; line-height: 10%; background: transparent;&quot; align=&quot;left&quot;&gt;&lt;font color=&quot;#434343&quot;&gt;&lt;font face=&quot;Times New Roman, serif&quot;&gt;&lt;font style=&quot;font-size: 12pt;&quot;&gt;A school is a generalization of the entities secondary school and primary school.&lt;/font&gt;&lt;/font&gt;&lt;/font&gt;&lt;/p&gt;&lt;/li&gt;&lt;li&gt;&lt;p style=&quot;margin-bottom: 0cm; line-height: 10%; background: transparent;&quot; align=&quot;left&quot;&gt;&lt;font color=&quot;#434343&quot;&gt;&lt;font face=&quot;Times New Roman, serif&quot;&gt;&lt;font style=&quot;font-size: 12pt;&quot;&gt;Person: ID, name, Address (Town, Zip Code), telephone&lt;/font&gt;&lt;/font&gt;&lt;/font&gt;&lt;/p&gt;&lt;/li&gt;&lt;li&gt;&lt;p style=&quot;margin-bottom: 0cm; line-height: 10%; background: transparent;&quot; align=&quot;left&quot;&gt;&lt;font color=&quot;#434343&quot;&gt;&lt;font face=&quot;Times New Roman, serif&quot;&gt;&lt;font style=&quot;font-size: 12pt;&quot;&gt;People specialize in Director, Teacher, Administrative.&lt;/font&gt;&lt;/font&gt;&lt;/font&gt;&lt;/p&gt;&lt;/li&gt;&lt;li&gt;&lt;p style=&quot;margin-bottom: 0cm; line-height: 10%; background: transparent;&quot; align=&quot;left&quot;&gt;&lt;font color=&quot;#434343&quot;&gt;&lt;font face=&quot;Times New Roman, serif&quot;&gt;&lt;font style=&quot;font-size: 12pt;&quot;&gt;Teacher: subject.&lt;/font&gt;&lt;/font&gt;&lt;/font&gt;&lt;/p&gt;&lt;/li&gt;&lt;li&gt;&lt;p style=&quot;margin-bottom: 0cm; line-height: 10%; background: transparent;&quot; align=&quot;left&quot;&gt;&lt;font color=&quot;#434343&quot;&gt;&lt;font face=&quot;Times New Roman, serif&quot;&gt;&lt;font style=&quot;font-size: 12pt;&quot;&gt;Administrative: group.&lt;/font&gt;&lt;/font&gt;&lt;/font&gt;&lt;/p&gt;&lt;/li&gt;&lt;li&gt;&lt;p style=&quot;margin-bottom: 0cm; line-height: 10%; background: transparent;&quot; align=&quot;left&quot;&gt;&lt;font color=&quot;#434343&quot;&gt;&lt;font face=&quot;Times New Roman, serif&quot;&gt;&lt;font style=&quot;font-size: 12pt;&quot;&gt;Director: grade&lt;/font&gt;&lt;/font&gt;&lt;/font&gt;&lt;/p&gt;&lt;/li&gt;&lt;li&gt;&lt;p style=&quot;margin-bottom: 0cm; line-height: 10%; background: transparent;&quot; align=&quot;left&quot;&gt;&lt;font color=&quot;#434343&quot;&gt;&lt;font face=&quot;Times New Roman, serif&quot;&gt;&lt;font style=&quot;font-size: 12pt;&quot;&gt;1 school can have 1 or more people, and 1 person can be in 1 or more schools.&lt;/font&gt;&lt;/font&gt;&lt;/font&gt;&lt;/p&gt;&lt;/li&gt;&lt;/ol&gt;&lt;/li&gt;&lt;/ol&gt;" style="text;html=1;align=center;verticalAlign=middle;resizable=0;points=[];autosize=1;strokeColor=none;fillColor=none;" parent="1" vertex="1">
          <mxGeometry width="620" height="190" as="geometry" />
        </mxCell>
        <mxCell id="msZfLE7CyJCTbzsIFVeG-23" value="" style="edgeStyle=orthogonalEdgeStyle;rounded=0;orthogonalLoop=1;jettySize=auto;html=1;endArrow=none;endFill=0;" parent="1" source="msZfLE7CyJCTbzsIFVeG-2" target="msZfLE7CyJCTbzsIFVeG-4" edge="1">
          <mxGeometry relative="1" as="geometry" />
        </mxCell>
        <mxCell id="msZfLE7CyJCTbzsIFVeG-24" value="" style="edgeStyle=orthogonalEdgeStyle;rounded=0;orthogonalLoop=1;jettySize=auto;html=1;endArrow=none;endFill=0;" parent="1" source="msZfLE7CyJCTbzsIFVeG-2" target="msZfLE7CyJCTbzsIFVeG-17" edge="1">
          <mxGeometry relative="1" as="geometry" />
        </mxCell>
        <mxCell id="msZfLE7CyJCTbzsIFVeG-2" value="School" style="whiteSpace=wrap;html=1;align=center;fillColor=#b1ddf0;strokeColor=#10739e;" parent="1" vertex="1">
          <mxGeometry x="140" y="320" width="100" height="40" as="geometry" />
        </mxCell>
        <mxCell id="msZfLE7CyJCTbzsIFVeG-53" style="edgeStyle=orthogonalEdgeStyle;rounded=0;orthogonalLoop=1;jettySize=auto;html=1;entryX=0.5;entryY=1;entryDx=0;entryDy=0;endArrow=none;endFill=0;" parent="1" source="msZfLE7CyJCTbzsIFVeG-3" target="msZfLE7CyJCTbzsIFVeG-52" edge="1">
          <mxGeometry relative="1" as="geometry" />
        </mxCell>
        <mxCell id="msZfLE7CyJCTbzsIFVeG-3" value="Person" style="whiteSpace=wrap;html=1;align=center;fillColor=#b1ddf0;strokeColor=#10739e;" parent="1" vertex="1">
          <mxGeometry x="700" y="320" width="100" height="40" as="geometry" />
        </mxCell>
        <mxCell id="msZfLE7CyJCTbzsIFVeG-20" style="edgeStyle=orthogonalEdgeStyle;rounded=0;orthogonalLoop=1;jettySize=auto;html=1;exitX=0.71;exitY=0.536;exitDx=0;exitDy=0;exitPerimeter=0;entryX=0.5;entryY=0;entryDx=0;entryDy=0;endArrow=none;endFill=0;" parent="1" source="msZfLE7CyJCTbzsIFVeG-4" target="msZfLE7CyJCTbzsIFVeG-7" edge="1">
          <mxGeometry relative="1" as="geometry">
            <Array as="points">
              <mxPoint x="205" y="425" />
              <mxPoint x="260" y="425" />
            </Array>
          </mxGeometry>
        </mxCell>
        <mxCell id="msZfLE7CyJCTbzsIFVeG-4" value="is" style="strokeWidth=2;html=1;shape=mxgraph.flowchart.merge_or_storage;whiteSpace=wrap;fillColor=#ffe6cc;strokeColor=#d79b00;" parent="1" vertex="1">
          <mxGeometry x="155" y="400" width="70" height="50" as="geometry" />
        </mxCell>
        <mxCell id="msZfLE7CyJCTbzsIFVeG-22" style="edgeStyle=orthogonalEdgeStyle;rounded=0;orthogonalLoop=1;jettySize=auto;html=1;entryX=0.244;entryY=0.515;entryDx=0;entryDy=0;entryPerimeter=0;endArrow=none;endFill=0;" parent="1" source="msZfLE7CyJCTbzsIFVeG-6" target="msZfLE7CyJCTbzsIFVeG-4" edge="1">
          <mxGeometry relative="1" as="geometry">
            <mxPoint x="120" y="420" as="targetPoint" />
            <Array as="points">
              <mxPoint x="120" y="426" />
            </Array>
          </mxGeometry>
        </mxCell>
        <mxCell id="msZfLE7CyJCTbzsIFVeG-28" value="" style="edgeStyle=orthogonalEdgeStyle;rounded=0;orthogonalLoop=1;jettySize=auto;html=1;endArrow=none;endFill=0;" parent="1" source="msZfLE7CyJCTbzsIFVeG-6" target="msZfLE7CyJCTbzsIFVeG-18" edge="1">
          <mxGeometry relative="1" as="geometry" />
        </mxCell>
        <mxCell id="msZfLE7CyJCTbzsIFVeG-6" value="Primary&lt;br&gt;School" style="whiteSpace=wrap;html=1;align=center;fillColor=#ffe6cc;strokeColor=#d79b00;" parent="1" vertex="1">
          <mxGeometry x="70" y="480" width="100" height="40" as="geometry" />
        </mxCell>
        <mxCell id="msZfLE7CyJCTbzsIFVeG-27" value="" style="edgeStyle=orthogonalEdgeStyle;rounded=0;orthogonalLoop=1;jettySize=auto;html=1;endArrow=none;endFill=0;" parent="1" source="msZfLE7CyJCTbzsIFVeG-7" target="msZfLE7CyJCTbzsIFVeG-19" edge="1">
          <mxGeometry relative="1" as="geometry" />
        </mxCell>
        <mxCell id="msZfLE7CyJCTbzsIFVeG-7" value="Secondary&lt;br&gt;School" style="whiteSpace=wrap;html=1;align=center;fillColor=#ffe6cc;strokeColor=#d79b00;" parent="1" vertex="1">
          <mxGeometry x="210" y="480" width="100" height="40" as="geometry" />
        </mxCell>
        <mxCell id="msZfLE7CyJCTbzsIFVeG-14" style="edgeStyle=orthogonalEdgeStyle;rounded=0;orthogonalLoop=1;jettySize=auto;html=1;" parent="1" source="msZfLE7CyJCTbzsIFVeG-8" edge="1">
          <mxGeometry relative="1" as="geometry">
            <mxPoint x="750" y="420" as="targetPoint" />
            <Array as="points">
              <mxPoint x="640" y="430" />
              <mxPoint x="750" y="430" />
            </Array>
          </mxGeometry>
        </mxCell>
        <mxCell id="msZfLE7CyJCTbzsIFVeG-8" value="Teacher" style="whiteSpace=wrap;html=1;align=center;fillColor=#b1ddf0;strokeColor=#10739e;" parent="1" vertex="1">
          <mxGeometry x="590" y="460" width="100" height="40" as="geometry" />
        </mxCell>
        <mxCell id="msZfLE7CyJCTbzsIFVeG-15" value="" style="edgeStyle=orthogonalEdgeStyle;rounded=0;orthogonalLoop=1;jettySize=auto;html=1;endArrow=none;endFill=0;" parent="1" source="msZfLE7CyJCTbzsIFVeG-9" target="msZfLE7CyJCTbzsIFVeG-3" edge="1">
          <mxGeometry relative="1" as="geometry" />
        </mxCell>
        <mxCell id="msZfLE7CyJCTbzsIFVeG-9" value="are" style="strokeWidth=2;html=1;shape=mxgraph.flowchart.merge_or_storage;whiteSpace=wrap;fillColor=#ffe6cc;strokeColor=#d79b00;" parent="1" vertex="1">
          <mxGeometry x="717.5" y="400" width="65" height="50" as="geometry" />
        </mxCell>
        <mxCell id="msZfLE7CyJCTbzsIFVeG-10" value="Administrative" style="whiteSpace=wrap;html=1;align=center;fillColor=#b1ddf0;strokeColor=#10739e;" parent="1" vertex="1">
          <mxGeometry x="700" y="520" width="100" height="40" as="geometry" />
        </mxCell>
        <mxCell id="msZfLE7CyJCTbzsIFVeG-11" value="Director" style="whiteSpace=wrap;html=1;align=center;fillColor=#b1ddf0;strokeColor=#10739e;" parent="1" vertex="1">
          <mxGeometry x="810" y="460" width="100" height="40" as="geometry" />
        </mxCell>
        <mxCell id="msZfLE7CyJCTbzsIFVeG-12" style="edgeStyle=orthogonalEdgeStyle;rounded=0;orthogonalLoop=1;jettySize=auto;html=1;entryX=0.5;entryY=1;entryDx=0;entryDy=0;entryPerimeter=0;endArrow=none;endFill=0;" parent="1" source="msZfLE7CyJCTbzsIFVeG-10" target="msZfLE7CyJCTbzsIFVeG-9" edge="1">
          <mxGeometry relative="1" as="geometry" />
        </mxCell>
        <mxCell id="msZfLE7CyJCTbzsIFVeG-13" style="edgeStyle=orthogonalEdgeStyle;rounded=0;orthogonalLoop=1;jettySize=auto;html=1;endArrow=none;endFill=0;entryX=0.726;entryY=0.599;entryDx=0;entryDy=0;entryPerimeter=0;" parent="1" source="msZfLE7CyJCTbzsIFVeG-11" target="msZfLE7CyJCTbzsIFVeG-9" edge="1">
          <mxGeometry relative="1" as="geometry">
            <mxPoint x="800" y="440" as="targetPoint" />
            <Array as="points">
              <mxPoint x="860" y="430" />
            </Array>
          </mxGeometry>
        </mxCell>
        <mxCell id="msZfLE7CyJCTbzsIFVeG-25" style="edgeStyle=orthogonalEdgeStyle;rounded=0;orthogonalLoop=1;jettySize=auto;html=1;entryX=1;entryY=0.5;entryDx=0;entryDy=0;endArrow=none;endFill=0;" parent="1" source="msZfLE7CyJCTbzsIFVeG-16" target="msZfLE7CyJCTbzsIFVeG-2" edge="1">
          <mxGeometry relative="1" as="geometry" />
        </mxCell>
        <mxCell id="msZfLE7CyJCTbzsIFVeG-26" style="edgeStyle=orthogonalEdgeStyle;rounded=0;orthogonalLoop=1;jettySize=auto;html=1;entryX=0;entryY=0.5;entryDx=0;entryDy=0;endArrow=none;endFill=0;" parent="1" source="msZfLE7CyJCTbzsIFVeG-16" target="msZfLE7CyJCTbzsIFVeG-3" edge="1">
          <mxGeometry relative="1" as="geometry" />
        </mxCell>
        <mxCell id="msZfLE7CyJCTbzsIFVeG-16" value="Relationship" style="shape=rhombus;perimeter=rhombusPerimeter;whiteSpace=wrap;html=1;align=center;fillColor=#ffe6cc;strokeColor=#d79b00;" parent="1" vertex="1">
          <mxGeometry x="430" y="310" width="120" height="60" as="geometry" />
        </mxCell>
        <mxCell id="msZfLE7CyJCTbzsIFVeG-17" value="Name" style="ellipse;whiteSpace=wrap;html=1;align=center;fillColor=#dae8fc;strokeColor=#6c8ebf;" parent="1" vertex="1">
          <mxGeometry x="140" y="230" width="100" height="40" as="geometry" />
        </mxCell>
        <mxCell id="msZfLE7CyJCTbzsIFVeG-18" value="idPrimarySchool" style="ellipse;whiteSpace=wrap;html=1;align=center;fontStyle=4;fillColor=#dae8fc;strokeColor=#6c8ebf;" parent="1" vertex="1">
          <mxGeometry x="70" y="560" width="100" height="40" as="geometry" />
        </mxCell>
        <mxCell id="msZfLE7CyJCTbzsIFVeG-19" value="idSecondarySchool" style="ellipse;whiteSpace=wrap;html=1;align=center;fontStyle=4;fillColor=#dae8fc;strokeColor=#6c8ebf;" parent="1" vertex="1">
          <mxGeometry x="210" y="560" width="100" height="40" as="geometry" />
        </mxCell>
        <mxCell id="msZfLE7CyJCTbzsIFVeG-30" value="" style="edgeStyle=orthogonalEdgeStyle;rounded=0;orthogonalLoop=1;jettySize=auto;html=1;endArrow=none;endFill=0;" parent="1" source="msZfLE7CyJCTbzsIFVeG-29" target="msZfLE7CyJCTbzsIFVeG-8" edge="1">
          <mxGeometry relative="1" as="geometry" />
        </mxCell>
        <mxCell id="msZfLE7CyJCTbzsIFVeG-29" value="Subject" style="ellipse;whiteSpace=wrap;html=1;align=center;fillColor=#dae8fc;strokeColor=#6c8ebf;" parent="1" vertex="1">
          <mxGeometry x="540" y="530" width="100" height="40" as="geometry" />
        </mxCell>
        <mxCell id="msZfLE7CyJCTbzsIFVeG-32" value="" style="edgeStyle=orthogonalEdgeStyle;rounded=0;orthogonalLoop=1;jettySize=auto;html=1;endArrow=none;endFill=0;" parent="1" source="msZfLE7CyJCTbzsIFVeG-31" target="msZfLE7CyJCTbzsIFVeG-10" edge="1">
          <mxGeometry relative="1" as="geometry" />
        </mxCell>
        <mxCell id="msZfLE7CyJCTbzsIFVeG-31" value="Group" style="ellipse;whiteSpace=wrap;html=1;align=center;fillColor=#dae8fc;strokeColor=#6c8ebf;" parent="1" vertex="1">
          <mxGeometry x="760" y="600" width="100" height="40" as="geometry" />
        </mxCell>
        <mxCell id="msZfLE7CyJCTbzsIFVeG-34" value="" style="edgeStyle=orthogonalEdgeStyle;rounded=0;orthogonalLoop=1;jettySize=auto;html=1;endArrow=none;endFill=0;" parent="1" source="msZfLE7CyJCTbzsIFVeG-33" target="msZfLE7CyJCTbzsIFVeG-11" edge="1">
          <mxGeometry relative="1" as="geometry" />
        </mxCell>
        <mxCell id="msZfLE7CyJCTbzsIFVeG-33" value="Grade" style="ellipse;whiteSpace=wrap;html=1;align=center;fillColor=#dae8fc;strokeColor=#6c8ebf;" parent="1" vertex="1">
          <mxGeometry x="810" y="520" width="100" height="40" as="geometry" />
        </mxCell>
        <mxCell id="msZfLE7CyJCTbzsIFVeG-36" style="edgeStyle=orthogonalEdgeStyle;rounded=0;orthogonalLoop=1;jettySize=auto;html=1;entryX=0;entryY=0.5;entryDx=0;entryDy=0;endArrow=none;endFill=0;" parent="1" source="msZfLE7CyJCTbzsIFVeG-35" target="msZfLE7CyJCTbzsIFVeG-8" edge="1">
          <mxGeometry relative="1" as="geometry" />
        </mxCell>
        <mxCell id="msZfLE7CyJCTbzsIFVeG-35" value="idTeacher" style="ellipse;whiteSpace=wrap;html=1;align=center;fontStyle=4;fillColor=#dae8fc;strokeColor=#6c8ebf;" parent="1" vertex="1">
          <mxGeometry x="460" y="460" width="100" height="40" as="geometry" />
        </mxCell>
        <mxCell id="msZfLE7CyJCTbzsIFVeG-38" style="edgeStyle=orthogonalEdgeStyle;rounded=0;orthogonalLoop=1;jettySize=auto;html=1;entryX=0.5;entryY=1;entryDx=0;entryDy=0;endArrow=none;endFill=0;" parent="1" source="msZfLE7CyJCTbzsIFVeG-37" target="msZfLE7CyJCTbzsIFVeG-10" edge="1">
          <mxGeometry relative="1" as="geometry" />
        </mxCell>
        <mxCell id="msZfLE7CyJCTbzsIFVeG-37" value="idAdministrative" style="ellipse;whiteSpace=wrap;html=1;align=center;fontStyle=4;fillColor=#dae8fc;strokeColor=#6c8ebf;" parent="1" vertex="1">
          <mxGeometry x="650" y="600" width="100" height="40" as="geometry" />
        </mxCell>
        <mxCell id="msZfLE7CyJCTbzsIFVeG-40" style="edgeStyle=orthogonalEdgeStyle;rounded=0;orthogonalLoop=1;jettySize=auto;html=1;entryX=1;entryY=0.5;entryDx=0;entryDy=0;endArrow=none;endFill=0;" parent="1" source="msZfLE7CyJCTbzsIFVeG-39" target="msZfLE7CyJCTbzsIFVeG-11" edge="1">
          <mxGeometry relative="1" as="geometry">
            <Array as="points">
              <mxPoint x="920" y="480" />
            </Array>
          </mxGeometry>
        </mxCell>
        <mxCell id="msZfLE7CyJCTbzsIFVeG-39" value="idDirector" style="ellipse;whiteSpace=wrap;html=1;align=center;fontStyle=4;fillColor=#dae8fc;strokeColor=#6c8ebf;" parent="1" vertex="1">
          <mxGeometry x="870" y="570" width="100" height="40" as="geometry" />
        </mxCell>
        <mxCell id="msZfLE7CyJCTbzsIFVeG-42" style="edgeStyle=orthogonalEdgeStyle;rounded=0;orthogonalLoop=1;jettySize=auto;html=1;endArrow=none;endFill=0;fillColor=#dae8fc;strokeColor=#6c8ebf;" parent="1" source="msZfLE7CyJCTbzsIFVeG-41" edge="1">
          <mxGeometry relative="1" as="geometry">
            <mxPoint x="710" y="320" as="targetPoint" />
          </mxGeometry>
        </mxCell>
        <mxCell id="msZfLE7CyJCTbzsIFVeG-41" value="ID" style="ellipse;whiteSpace=wrap;html=1;align=center;fontStyle=4;fillColor=#dae8fc;strokeColor=#6c8ebf;" parent="1" vertex="1">
          <mxGeometry x="590" y="260" width="100" height="40" as="geometry" />
        </mxCell>
        <mxCell id="msZfLE7CyJCTbzsIFVeG-43" value="Name" style="ellipse;whiteSpace=wrap;html=1;align=center;fillColor=#dae8fc;strokeColor=#6c8ebf;" parent="1" vertex="1">
          <mxGeometry x="640" y="220" width="100" height="40" as="geometry" />
        </mxCell>
        <mxCell id="msZfLE7CyJCTbzsIFVeG-44" style="edgeStyle=orthogonalEdgeStyle;rounded=0;orthogonalLoop=1;jettySize=auto;html=1;entryX=0.394;entryY=-0.067;entryDx=0;entryDy=0;entryPerimeter=0;endArrow=none;endFill=0;fillColor=#dae8fc;strokeColor=#6c8ebf;" parent="1" source="msZfLE7CyJCTbzsIFVeG-43" target="msZfLE7CyJCTbzsIFVeG-3" edge="1">
          <mxGeometry relative="1" as="geometry">
            <Array as="points">
              <mxPoint x="740" y="290" />
            </Array>
          </mxGeometry>
        </mxCell>
        <mxCell id="msZfLE7CyJCTbzsIFVeG-49" style="edgeStyle=orthogonalEdgeStyle;rounded=0;orthogonalLoop=1;jettySize=auto;html=1;entryX=0.5;entryY=1;entryDx=0;entryDy=0;endArrow=none;endFill=0;fillColor=#dae8fc;strokeColor=#6c8ebf;" parent="1" source="msZfLE7CyJCTbzsIFVeG-45" target="msZfLE7CyJCTbzsIFVeG-46" edge="1">
          <mxGeometry relative="1" as="geometry" />
        </mxCell>
        <mxCell id="msZfLE7CyJCTbzsIFVeG-45" value="Address" style="ellipse;whiteSpace=wrap;html=1;align=center;fillColor=#dae8fc;strokeColor=#6c8ebf;" parent="1" vertex="1">
          <mxGeometry x="750" y="210" width="100" height="40" as="geometry" />
        </mxCell>
        <mxCell id="msZfLE7CyJCTbzsIFVeG-46" value="Town" style="ellipse;whiteSpace=wrap;html=1;align=center;fillColor=#dae8fc;strokeColor=#6c8ebf;" parent="1" vertex="1">
          <mxGeometry x="750" y="130" width="100" height="40" as="geometry" />
        </mxCell>
        <mxCell id="msZfLE7CyJCTbzsIFVeG-48" style="edgeStyle=orthogonalEdgeStyle;rounded=0;orthogonalLoop=1;jettySize=auto;html=1;entryX=1;entryY=0;entryDx=0;entryDy=0;endArrow=none;endFill=0;fillColor=#dae8fc;strokeColor=#6c8ebf;" parent="1" source="msZfLE7CyJCTbzsIFVeG-47" target="msZfLE7CyJCTbzsIFVeG-45" edge="1">
          <mxGeometry relative="1" as="geometry" />
        </mxCell>
        <mxCell id="msZfLE7CyJCTbzsIFVeG-47" value="Zip Code" style="ellipse;whiteSpace=wrap;html=1;align=center;fillColor=#dae8fc;strokeColor=#6c8ebf;" parent="1" vertex="1">
          <mxGeometry x="850" y="150" width="100" height="40" as="geometry" />
        </mxCell>
        <mxCell id="msZfLE7CyJCTbzsIFVeG-50" style="edgeStyle=orthogonalEdgeStyle;rounded=0;orthogonalLoop=1;jettySize=auto;html=1;entryX=0.615;entryY=-0.067;entryDx=0;entryDy=0;entryPerimeter=0;endArrow=none;endFill=0;fillColor=#dae8fc;strokeColor=#6c8ebf;" parent="1" source="msZfLE7CyJCTbzsIFVeG-45" target="msZfLE7CyJCTbzsIFVeG-3" edge="1">
          <mxGeometry relative="1" as="geometry" />
        </mxCell>
        <mxCell id="msZfLE7CyJCTbzsIFVeG-52" value="Telephone" style="ellipse;shape=doubleEllipse;margin=3;whiteSpace=wrap;html=1;align=center;fillColor=#dae8fc;strokeColor=#6c8ebf;" parent="1" vertex="1">
          <mxGeometry x="820" y="270" width="100" height="40" as="geometry" />
        </mxCell>
        <mxCell id="HSogxSqO9Zx5Tf2s577s-1" value="(1,n)" style="text;html=1;align=center;verticalAlign=middle;resizable=0;points=[];autosize=1;strokeColor=none;fillColor=none;" parent="1" vertex="1">
          <mxGeometry x="655" y="308" width="50" height="30" as="geometry" />
        </mxCell>
        <mxCell id="HSogxSqO9Zx5Tf2s577s-2" value="(1,n)" style="text;html=1;align=center;verticalAlign=middle;resizable=0;points=[];autosize=1;strokeColor=none;fillColor=none;" parent="1" vertex="1">
          <mxGeometry x="235" y="308" width="50" height="30" as="geometry" />
        </mxCell>
        <mxCell id="HSogxSqO9Zx5Tf2s577s-3" value="N:M" style="text;html=1;align=center;verticalAlign=middle;resizable=0;points=[];autosize=1;strokeColor=none;fillColor=none;" parent="1" vertex="1">
          <mxGeometry x="463" y="275" width="50" height="30" as="geometry" />
        </mxCell>
        <mxCell id="HSogxSqO9Zx5Tf2s577s-4" value="(0,1)" style="text;html=1;align=center;verticalAlign=middle;resizable=0;points=[];autosize=1;strokeColor=none;fillColor=none;" parent="1" vertex="1">
          <mxGeometry x="597" y="434" width="50" height="30" as="geometry" />
        </mxCell>
        <mxCell id="HSogxSqO9Zx5Tf2s577s-5" value="(0,1)" style="text;html=1;align=center;verticalAlign=middle;resizable=0;points=[];autosize=1;strokeColor=none;fillColor=none;" parent="1" vertex="1">
          <mxGeometry x="707" y="492" width="50" height="30" as="geometry" />
        </mxCell>
        <mxCell id="HSogxSqO9Zx5Tf2s577s-6" value="(0,1)" style="text;html=1;align=center;verticalAlign=middle;resizable=0;points=[];autosize=1;strokeColor=none;fillColor=none;" parent="1" vertex="1">
          <mxGeometry x="850" y="432" width="50" height="30" as="geometry" />
        </mxCell>
        <mxCell id="HSogxSqO9Zx5Tf2s577s-7" value="1:1" style="text;html=1;align=center;verticalAlign=middle;resizable=0;points=[];autosize=1;strokeColor=none;fillColor=none;" parent="1" vertex="1">
          <mxGeometry x="743" y="369" width="40" height="30" as="geometry" />
        </mxCell>
        <mxCell id="OLg0T-1NfEaaBNob5Vaz-2" value="(0,1)" style="text;html=1;align=center;verticalAlign=middle;resizable=0;points=[];autosize=1;strokeColor=none;fillColor=none;" parent="1" vertex="1">
          <mxGeometry x="250" y="450" width="50" height="30" as="geometry" />
        </mxCell>
        <mxCell id="OLg0T-1NfEaaBNob5Vaz-3" value="(0,1)" style="text;html=1;align=center;verticalAlign=middle;resizable=0;points=[];autosize=1;strokeColor=none;fillColor=none;" parent="1" vertex="1">
          <mxGeometry x="76" y="450" width="50" height="30" as="geometry" />
        </mxCell>
        <mxCell id="OLg0T-1NfEaaBNob5Vaz-4" value="1:1" style="text;html=1;align=center;verticalAlign=middle;resizable=0;points=[];autosize=1;strokeColor=none;fillColor=none;" parent="1" vertex="1">
          <mxGeometry x="183" y="368" width="40" height="30" as="geometry" />
        </mxCell>
      </root>
    </mxGraphModel>
  </diagram>
  <diagram id="0Vr5BDH9HPzQRlIkc1y5" name="Exercise 2">
    <mxGraphModel dx="1434" dy="769" grid="1" gridSize="10" guides="1" tooltips="1" connect="1" arrows="1" fold="1" page="1" pageScale="1" pageWidth="1169" pageHeight="827" math="0" shadow="0">
      <root>
        <mxCell id="0" />
        <mxCell id="1" parent="0" />
        <mxCell id="KAOZLRH-aGIeH3DZMLe1-14" style="edgeStyle=orthogonalEdgeStyle;rounded=0;orthogonalLoop=1;jettySize=auto;html=1;exitX=0;exitY=0.5;exitDx=0;exitDy=0;entryX=1;entryY=0.5;entryDx=0;entryDy=0;endArrow=none;endFill=0;" parent="1" source="KAOZLRH-aGIeH3DZMLe1-1" target="KAOZLRH-aGIeH3DZMLe1-9" edge="1">
          <mxGeometry relative="1" as="geometry" />
        </mxCell>
        <mxCell id="KAOZLRH-aGIeH3DZMLe1-15" style="edgeStyle=orthogonalEdgeStyle;rounded=0;orthogonalLoop=1;jettySize=auto;html=1;exitX=0.25;exitY=0;exitDx=0;exitDy=0;entryX=1;entryY=1;entryDx=0;entryDy=0;endArrow=none;endFill=0;" parent="1" source="KAOZLRH-aGIeH3DZMLe1-1" target="KAOZLRH-aGIeH3DZMLe1-8" edge="1">
          <mxGeometry relative="1" as="geometry">
            <Array as="points">
              <mxPoint x="260" y="460" />
              <mxPoint x="260" y="450" />
              <mxPoint x="235" y="450" />
            </Array>
          </mxGeometry>
        </mxCell>
        <mxCell id="KAOZLRH-aGIeH3DZMLe1-18" value="" style="edgeStyle=orthogonalEdgeStyle;rounded=0;orthogonalLoop=1;jettySize=auto;html=1;endArrow=none;endFill=0;" parent="1" source="KAOZLRH-aGIeH3DZMLe1-1" target="KAOZLRH-aGIeH3DZMLe1-17" edge="1">
          <mxGeometry relative="1" as="geometry" />
        </mxCell>
        <mxCell id="KAOZLRH-aGIeH3DZMLe1-1" value="Hospital" style="whiteSpace=wrap;html=1;align=center;fillColor=#b1ddf0;strokeColor=#10739e;" parent="1" vertex="1">
          <mxGeometry x="250" y="460" width="100" height="40" as="geometry" />
        </mxCell>
        <mxCell id="KAOZLRH-aGIeH3DZMLe1-2" value="&lt;ol style=&quot;font-size: 15px; text-align: start; line-height: 0%;&quot;&gt;&lt;li&gt;&lt;p style=&quot;margin-bottom: 0cm; line-height: 0%; background: transparent;&quot; align=&quot;justify&quot;&gt;&lt;font style=&quot;font-size: 15px;&quot; color=&quot;#434343&quot;&gt;&lt;font style=&quot;font-size: 15px;&quot; face=&quot;Times New Roman, serif&quot;&gt;&lt;font style=&quot;font-size: 15px;&quot;&gt;&lt;b&gt;Create a diagram with the Hospital, Plant and Employee entities.&lt;/b&gt;&lt;/font&gt;&lt;/font&gt;&lt;/font&gt;&lt;/p&gt;&lt;ol style=&quot;line-height: 0%;&quot; type=&quot;a&quot;&gt;&lt;li&gt;&lt;p style=&quot;margin-bottom: 0cm; line-height: 0%; background: transparent;&quot; align=&quot;justify&quot;&gt;&lt;font style=&quot;font-size: 15px;&quot; color=&quot;#434343&quot;&gt;&lt;font style=&quot;font-size: 15px;&quot; face=&quot;Times New Roman, serif&quot;&gt;&lt;font style=&quot;font-size: 15px;&quot;&gt;Hospital: name, Hospitalid, Address (Population, CP)&lt;/font&gt;&lt;/font&gt;&lt;/font&gt;&lt;/p&gt;&lt;/li&gt;&lt;li&gt;&lt;p style=&quot;margin-bottom: 0cm; line-height: 0%; background: transparent;&quot; align=&quot;justify&quot;&gt;&lt;font style=&quot;font-size: 15px;&quot; color=&quot;#434343&quot;&gt;&lt;font style=&quot;font-size: 15px;&quot; face=&quot;Times New Roman, serif&quot;&gt;&lt;font style=&quot;font-size: 15px;&quot;&gt;Floor: number, plantid, hospitalid&lt;/font&gt;&lt;/font&gt;&lt;/font&gt;&lt;/p&gt;&lt;/li&gt;&lt;li&gt;&lt;p style=&quot;margin-bottom: 0cm; line-height: 0%; background: transparent;&quot; align=&quot;justify&quot;&gt;&lt;font style=&quot;font-size: 15px;&quot; color=&quot;#434343&quot;&gt;&lt;font style=&quot;font-size: 15px;&quot; face=&quot;Times New Roman, serif&quot;&gt;&lt;font style=&quot;font-size: 15px;&quot;&gt;A plant is a generalization of emergency and specialty entities.&lt;/font&gt;&lt;/font&gt;&lt;/font&gt;&lt;/p&gt;&lt;/li&gt;&lt;li&gt;&lt;p style=&quot;margin-bottom: 0cm; line-height: 0%; background: transparent;&quot; align=&quot;justify&quot;&gt;&lt;font style=&quot;font-size: 15px;&quot; color=&quot;#434343&quot;&gt;&lt;font style=&quot;font-size: 15px;&quot; face=&quot;Times New Roman, serif&quot;&gt;&lt;font style=&quot;font-size: 15px;&quot;&gt;Employee: EmployeeID, full name (first and last name), NIF, PlantID, emai&lt;/font&gt;&lt;/font&gt;&lt;/font&gt;&lt;/p&gt;&lt;/li&gt;&lt;li&gt;&lt;p style=&quot;margin-bottom: 0cm; line-height: 0%; background: transparent;&quot; align=&quot;justify&quot;&gt;&lt;span style=&quot;font-family: &amp;quot;Times New Roman&amp;quot;, serif; color: rgb(67, 67, 67); background-color: transparent; text-align: start;&quot;&gt;Employees specialize in Assistant, Nurse, Doctor.&lt;/span&gt;&lt;/p&gt;&lt;/li&gt;&lt;li&gt;&lt;p style=&quot;margin-bottom: 0cm; line-height: 0%; background: transparent;&quot; align=&quot;justify&quot;&gt;&lt;font style=&quot;font-size: 15px;&quot; color=&quot;#434343&quot;&gt;&lt;font style=&quot;font-size: 15px;&quot; face=&quot;Times New Roman, serif&quot;&gt;&lt;font style=&quot;font-size: 15px;&quot;&gt;Doctor: interim.&lt;/font&gt;&lt;/font&gt;&lt;/font&gt;&lt;/p&gt;&lt;/li&gt;&lt;li&gt;&lt;p style=&quot;margin-bottom: 0cm; line-height: 0%; background: transparent;&quot; align=&quot;justify&quot;&gt;&lt;font style=&quot;font-size: 15px;&quot; color=&quot;#434343&quot;&gt;&lt;font style=&quot;font-size: 15px;&quot; face=&quot;Times New Roman, serif&quot;&gt;&lt;font style=&quot;font-size: 15px;&quot;&gt;Nurse: ICU&lt;/font&gt;&lt;/font&gt;&lt;/font&gt;&lt;/p&gt;&lt;/li&gt;&lt;li&gt;&lt;p style=&quot;margin-bottom: 0cm; line-height: 0%; background: transparent;&quot; align=&quot;justify&quot;&gt;&lt;font style=&quot;font-size: 15px;&quot; color=&quot;#434343&quot;&gt;&lt;font style=&quot;font-size: 15px;&quot; face=&quot;Times New Roman, serif&quot;&gt;&lt;font style=&quot;font-size: 15px;&quot;&gt;Auxiliary: type&lt;/font&gt;&lt;/font&gt;&lt;/font&gt;&lt;/p&gt;&lt;/li&gt;&lt;li&gt;&lt;p style=&quot;margin-bottom: 0cm; line-height: 0%; background: transparent;&quot; align=&quot;justify&quot;&gt;&lt;font style=&quot;font-size: 15px;&quot; color=&quot;#434343&quot;&gt;&lt;font style=&quot;font-size: 15px;&quot; face=&quot;Times New Roman, serif&quot;&gt;&lt;font style=&quot;font-size: 15px;&quot;&gt;1 hospital can have 1 or more employees, and 1 employee can be in 1 or more hospitals.&lt;/font&gt;&lt;/font&gt;&lt;/font&gt;&lt;/p&gt;&lt;/li&gt;&lt;li&gt;&lt;p style=&quot;margin-bottom: 0cm; line-height: 0%; background: transparent;&quot; align=&quot;justify&quot;&gt;&lt;font style=&quot;font-size: 15px;&quot; color=&quot;#434343&quot;&gt;&lt;font style=&quot;font-size: 15px;&quot; face=&quot;Times New Roman, serif&quot;&gt;&lt;font style=&quot;font-size: 15px;&quot;&gt;1 hospital can have 1 or more floors, and 1 floor can only be in 1 hospital.&lt;/font&gt;&lt;/font&gt;&lt;/font&gt;&lt;/p&gt;&lt;/li&gt;&lt;li&gt;&lt;p style=&quot;margin-bottom: 0cm; line-height: 0%; background: transparent;&quot; align=&quot;justify&quot;&gt;&lt;font style=&quot;font-size: 15px;&quot; color=&quot;#434343&quot;&gt;&lt;font style=&quot;font-size: 15px;&quot; face=&quot;Times New Roman, serif&quot;&gt;&lt;font style=&quot;font-size: 15px;&quot;&gt;1 plant can have 1 or more employees, and 1 employee can only work in one plant.&lt;/font&gt;&lt;/font&gt;&lt;/font&gt;&lt;/p&gt;&lt;/li&gt;&lt;/ol&gt;&lt;/li&gt;&lt;/ol&gt;" style="text;html=1;align=center;verticalAlign=middle;resizable=0;points=[];autosize=1;strokeColor=none;fillColor=none;" parent="1" vertex="1">
          <mxGeometry x="270" width="630" height="210" as="geometry" />
        </mxCell>
        <mxCell id="KAOZLRH-aGIeH3DZMLe1-5" value="Floor" style="whiteSpace=wrap;html=1;align=center;fillColor=#b1ddf0;strokeColor=#10739e;" parent="1" vertex="1">
          <mxGeometry x="650" y="620" width="100" height="40" as="geometry" />
        </mxCell>
        <mxCell id="KAOZLRH-aGIeH3DZMLe1-30" value="" style="edgeStyle=orthogonalEdgeStyle;rounded=0;orthogonalLoop=1;jettySize=auto;html=1;entryX=0.28;entryY=0.5;entryDx=0;entryDy=0;entryPerimeter=0;endArrow=none;endFill=0;" parent="1" source="KAOZLRH-aGIeH3DZMLe1-6" target="KAOZLRH-aGIeH3DZMLe1-28" edge="1">
          <mxGeometry relative="1" as="geometry" />
        </mxCell>
        <mxCell id="KAOZLRH-aGIeH3DZMLe1-6" value="Employee" style="whiteSpace=wrap;html=1;align=center;fillColor=#b1ddf0;strokeColor=#10739e;" parent="1" vertex="1">
          <mxGeometry x="650" y="460" width="100" height="40" as="geometry" />
        </mxCell>
        <mxCell id="KAOZLRH-aGIeH3DZMLe1-16" style="edgeStyle=orthogonalEdgeStyle;rounded=0;orthogonalLoop=1;jettySize=auto;html=1;entryX=0.5;entryY=0;entryDx=0;entryDy=0;endArrow=none;endFill=0;" parent="1" source="KAOZLRH-aGIeH3DZMLe1-7" target="KAOZLRH-aGIeH3DZMLe1-1" edge="1">
          <mxGeometry relative="1" as="geometry" />
        </mxCell>
        <mxCell id="KAOZLRH-aGIeH3DZMLe1-7" value="Name" style="ellipse;whiteSpace=wrap;html=1;align=center;fillColor=#dae8fc;strokeColor=#6c8ebf;" parent="1" vertex="1">
          <mxGeometry x="250" y="370" width="100" height="40" as="geometry" />
        </mxCell>
        <mxCell id="KAOZLRH-aGIeH3DZMLe1-8" value="IDHospital" style="ellipse;whiteSpace=wrap;html=1;align=center;fontStyle=4;fillColor=#dae8fc;strokeColor=#6c8ebf;" parent="1" vertex="1">
          <mxGeometry x="150" y="400" width="100" height="40" as="geometry" />
        </mxCell>
        <mxCell id="KAOZLRH-aGIeH3DZMLe1-12" style="edgeStyle=orthogonalEdgeStyle;rounded=0;orthogonalLoop=1;jettySize=auto;html=1;exitX=0;exitY=1;exitDx=0;exitDy=0;entryX=1;entryY=0.5;entryDx=0;entryDy=0;endArrow=none;endFill=0;" parent="1" source="KAOZLRH-aGIeH3DZMLe1-9" target="KAOZLRH-aGIeH3DZMLe1-11" edge="1">
          <mxGeometry relative="1" as="geometry">
            <mxPoint x="140" y="520" as="targetPoint" />
            <Array as="points">
              <mxPoint x="145" y="520" />
              <mxPoint x="120" y="520" />
            </Array>
          </mxGeometry>
        </mxCell>
        <mxCell id="KAOZLRH-aGIeH3DZMLe1-13" style="edgeStyle=orthogonalEdgeStyle;rounded=0;orthogonalLoop=1;jettySize=auto;html=1;exitX=0;exitY=0;exitDx=0;exitDy=0;entryX=1;entryY=0.5;entryDx=0;entryDy=0;endArrow=none;endFill=0;" parent="1" source="KAOZLRH-aGIeH3DZMLe1-9" target="KAOZLRH-aGIeH3DZMLe1-10" edge="1">
          <mxGeometry relative="1" as="geometry">
            <Array as="points">
              <mxPoint x="145" y="440" />
            </Array>
          </mxGeometry>
        </mxCell>
        <mxCell id="KAOZLRH-aGIeH3DZMLe1-9" value="Address" style="ellipse;whiteSpace=wrap;html=1;align=center;fillColor=#dae8fc;strokeColor=#6c8ebf;" parent="1" vertex="1">
          <mxGeometry x="130" y="460" width="100" height="40" as="geometry" />
        </mxCell>
        <mxCell id="KAOZLRH-aGIeH3DZMLe1-10" value="Population" style="ellipse;whiteSpace=wrap;html=1;align=center;fillColor=#f5f9ff;strokeColor=#6c8ebf;" parent="1" vertex="1">
          <mxGeometry x="20" y="420" width="100" height="40" as="geometry" />
        </mxCell>
        <mxCell id="KAOZLRH-aGIeH3DZMLe1-11" value="Code Postal" style="ellipse;whiteSpace=wrap;html=1;align=center;fillColor=#f5f9ff;strokeColor=#6c8ebf;" parent="1" vertex="1">
          <mxGeometry x="20" y="498" width="100" height="40" as="geometry" />
        </mxCell>
        <mxCell id="KAOZLRH-aGIeH3DZMLe1-19" value="" style="edgeStyle=orthogonalEdgeStyle;rounded=0;orthogonalLoop=1;jettySize=auto;html=1;endArrow=none;endFill=0;" parent="1" source="KAOZLRH-aGIeH3DZMLe1-17" target="KAOZLRH-aGIeH3DZMLe1-5" edge="1">
          <mxGeometry relative="1" as="geometry" />
        </mxCell>
        <mxCell id="KAOZLRH-aGIeH3DZMLe1-17" value="have" style="shape=rhombus;perimeter=rhombusPerimeter;whiteSpace=wrap;html=1;align=center;fillColor=#ffe6cc;strokeColor=#d79b00;" parent="1" vertex="1">
          <mxGeometry x="240" y="610" width="120" height="60" as="geometry" />
        </mxCell>
        <mxCell id="KAOZLRH-aGIeH3DZMLe1-21" value="" style="edgeStyle=orthogonalEdgeStyle;rounded=0;orthogonalLoop=1;jettySize=auto;html=1;endArrow=none;endFill=0;" parent="1" source="KAOZLRH-aGIeH3DZMLe1-20" target="KAOZLRH-aGIeH3DZMLe1-1" edge="1">
          <mxGeometry relative="1" as="geometry" />
        </mxCell>
        <mxCell id="KAOZLRH-aGIeH3DZMLe1-22" value="" style="edgeStyle=orthogonalEdgeStyle;rounded=0;orthogonalLoop=1;jettySize=auto;html=1;endArrow=none;endFill=0;" parent="1" source="KAOZLRH-aGIeH3DZMLe1-20" target="KAOZLRH-aGIeH3DZMLe1-6" edge="1">
          <mxGeometry relative="1" as="geometry" />
        </mxCell>
        <mxCell id="KAOZLRH-aGIeH3DZMLe1-20" value="have" style="shape=rhombus;perimeter=rhombusPerimeter;whiteSpace=wrap;html=1;align=center;fillColor=#ffe6cc;strokeColor=#d79b00;" parent="1" vertex="1">
          <mxGeometry x="440" y="450" width="120" height="60" as="geometry" />
        </mxCell>
        <mxCell id="KAOZLRH-aGIeH3DZMLe1-24" value="" style="edgeStyle=orthogonalEdgeStyle;rounded=0;orthogonalLoop=1;jettySize=auto;html=1;endArrow=none;endFill=0;" parent="1" source="KAOZLRH-aGIeH3DZMLe1-23" target="KAOZLRH-aGIeH3DZMLe1-6" edge="1">
          <mxGeometry relative="1" as="geometry" />
        </mxCell>
        <mxCell id="KAOZLRH-aGIeH3DZMLe1-25" value="" style="edgeStyle=orthogonalEdgeStyle;rounded=0;orthogonalLoop=1;jettySize=auto;html=1;endArrow=none;endFill=0;" parent="1" source="KAOZLRH-aGIeH3DZMLe1-23" target="KAOZLRH-aGIeH3DZMLe1-5" edge="1">
          <mxGeometry relative="1" as="geometry" />
        </mxCell>
        <mxCell id="KAOZLRH-aGIeH3DZMLe1-23" value="have" style="shape=rhombus;perimeter=rhombusPerimeter;whiteSpace=wrap;html=1;align=center;fillColor=#ffe6cc;strokeColor=#d79b00;" parent="1" vertex="1">
          <mxGeometry x="640" y="530" width="120" height="60" as="geometry" />
        </mxCell>
        <mxCell id="KAOZLRH-aGIeH3DZMLe1-42" style="rounded=0;orthogonalLoop=1;jettySize=auto;html=1;entryX=0.25;entryY=0;entryDx=0;entryDy=0;endArrow=none;endFill=0;" parent="1" source="KAOZLRH-aGIeH3DZMLe1-26" target="KAOZLRH-aGIeH3DZMLe1-6" edge="1">
          <mxGeometry relative="1" as="geometry" />
        </mxCell>
        <mxCell id="KAOZLRH-aGIeH3DZMLe1-26" value="EmployeeID" style="ellipse;whiteSpace=wrap;html=1;align=center;fontStyle=4;fillColor=#dae8fc;strokeColor=#6c8ebf;" parent="1" vertex="1">
          <mxGeometry x="500" y="400" width="100" height="40" as="geometry" />
        </mxCell>
        <mxCell id="KAOZLRH-aGIeH3DZMLe1-27" value="NIF" style="ellipse;whiteSpace=wrap;html=1;align=center;fontStyle=4;fillColor=#dae8fc;strokeColor=#6c8ebf;" parent="1" vertex="1">
          <mxGeometry x="585" y="360" width="100" height="40" as="geometry" />
        </mxCell>
        <mxCell id="KAOZLRH-aGIeH3DZMLe1-28" value="is" style="strokeWidth=2;html=1;shape=mxgraph.flowchart.merge_or_storage;whiteSpace=wrap;fillColor=#ffe6cc;strokeColor=#d79b00;" parent="1" vertex="1">
          <mxGeometry x="810" y="458" width="75" height="44" as="geometry" />
        </mxCell>
        <mxCell id="KAOZLRH-aGIeH3DZMLe1-31" value="Auxiliary" style="whiteSpace=wrap;html=1;align=center;fillColor=#b1ddf0;strokeColor=#10739e;" parent="1" vertex="1">
          <mxGeometry x="930" y="400" width="100" height="40" as="geometry" />
        </mxCell>
        <mxCell id="KAOZLRH-aGIeH3DZMLe1-32" value="Nurse" style="whiteSpace=wrap;html=1;align=center;fillColor=#b1ddf0;strokeColor=#10739e;" parent="1" vertex="1">
          <mxGeometry x="930" y="460" width="100" height="40" as="geometry" />
        </mxCell>
        <mxCell id="KAOZLRH-aGIeH3DZMLe1-33" value="Doctor" style="whiteSpace=wrap;html=1;align=center;fillColor=#b1ddf0;strokeColor=#10739e;" parent="1" vertex="1">
          <mxGeometry x="930" y="510" width="100" height="40" as="geometry" />
        </mxCell>
        <mxCell id="KAOZLRH-aGIeH3DZMLe1-34" style="rounded=0;orthogonalLoop=1;jettySize=auto;html=1;entryX=0.693;entryY=0.705;entryDx=0;entryDy=0;entryPerimeter=0;endArrow=none;endFill=0;" parent="1" source="KAOZLRH-aGIeH3DZMLe1-33" target="KAOZLRH-aGIeH3DZMLe1-28" edge="1">
          <mxGeometry relative="1" as="geometry" />
        </mxCell>
        <mxCell id="KAOZLRH-aGIeH3DZMLe1-35" style="rounded=0;orthogonalLoop=1;jettySize=auto;html=1;entryX=0.773;entryY=0.5;entryDx=0;entryDy=0;entryPerimeter=0;endArrow=none;endFill=0;" parent="1" source="KAOZLRH-aGIeH3DZMLe1-32" target="KAOZLRH-aGIeH3DZMLe1-28" edge="1">
          <mxGeometry relative="1" as="geometry" />
        </mxCell>
        <mxCell id="KAOZLRH-aGIeH3DZMLe1-36" style="rounded=0;orthogonalLoop=1;jettySize=auto;html=1;endArrow=none;endFill=0;entryX=0.707;entryY=-0.045;entryDx=0;entryDy=0;entryPerimeter=0;" parent="1" source="KAOZLRH-aGIeH3DZMLe1-31" target="KAOZLRH-aGIeH3DZMLe1-28" edge="1">
          <mxGeometry relative="1" as="geometry">
            <mxPoint x="870" y="456" as="targetPoint" />
          </mxGeometry>
        </mxCell>
        <mxCell id="KAOZLRH-aGIeH3DZMLe1-40" style="rounded=0;orthogonalLoop=1;jettySize=auto;html=1;exitX=0;exitY=1;exitDx=0;exitDy=0;entryX=0.75;entryY=0;entryDx=0;entryDy=0;endArrow=none;endFill=0;" parent="1" source="KAOZLRH-aGIeH3DZMLe1-38" target="KAOZLRH-aGIeH3DZMLe1-6" edge="1">
          <mxGeometry relative="1" as="geometry" />
        </mxCell>
        <mxCell id="KAOZLRH-aGIeH3DZMLe1-38" value="PlantID" style="ellipse;whiteSpace=wrap;html=1;align=center;fontStyle=4;fillColor=#dae8fc;strokeColor=#6c8ebf;" parent="1" vertex="1">
          <mxGeometry x="790" y="400" width="100" height="40" as="geometry" />
        </mxCell>
        <mxCell id="KAOZLRH-aGIeH3DZMLe1-45" style="rounded=0;orthogonalLoop=1;jettySize=auto;html=1;entryX=0.5;entryY=0;entryDx=0;entryDy=0;endArrow=none;endFill=0;" parent="1" source="KAOZLRH-aGIeH3DZMLe1-39" target="KAOZLRH-aGIeH3DZMLe1-6" edge="1">
          <mxGeometry relative="1" as="geometry" />
        </mxCell>
        <mxCell id="KAOZLRH-aGIeH3DZMLe1-48" style="rounded=0;orthogonalLoop=1;jettySize=auto;html=1;exitX=1;exitY=0;exitDx=0;exitDy=0;entryX=0.5;entryY=1;entryDx=0;entryDy=0;endArrow=none;endFill=0;" parent="1" source="KAOZLRH-aGIeH3DZMLe1-39" target="KAOZLRH-aGIeH3DZMLe1-47" edge="1">
          <mxGeometry relative="1" as="geometry" />
        </mxCell>
        <mxCell id="KAOZLRH-aGIeH3DZMLe1-49" style="rounded=0;orthogonalLoop=1;jettySize=auto;html=1;entryX=0.5;entryY=1;entryDx=0;entryDy=0;endArrow=none;endFill=0;exitX=0;exitY=0;exitDx=0;exitDy=0;" parent="1" source="KAOZLRH-aGIeH3DZMLe1-39" target="KAOZLRH-aGIeH3DZMLe1-46" edge="1">
          <mxGeometry relative="1" as="geometry" />
        </mxCell>
        <mxCell id="KAOZLRH-aGIeH3DZMLe1-39" value="Full name" style="ellipse;whiteSpace=wrap;html=1;align=center;fillColor=#dae8fc;strokeColor=#6c8ebf;" parent="1" vertex="1">
          <mxGeometry x="650" y="316" width="100" height="40" as="geometry" />
        </mxCell>
        <mxCell id="KAOZLRH-aGIeH3DZMLe1-41" style="rounded=0;orthogonalLoop=1;jettySize=auto;html=1;entryX=0.61;entryY=0;entryDx=0;entryDy=0;entryPerimeter=0;endArrow=none;endFill=0;" parent="1" target="KAOZLRH-aGIeH3DZMLe1-6" edge="1">
          <mxGeometry relative="1" as="geometry">
            <mxPoint x="755.8527426378014" y="399.1827218470489" as="sourcePoint" />
          </mxGeometry>
        </mxCell>
        <mxCell id="KAOZLRH-aGIeH3DZMLe1-43" style="rounded=0;orthogonalLoop=1;jettySize=auto;html=1;endArrow=none;endFill=0;entryX=0.35;entryY=0.05;entryDx=0;entryDy=0;entryPerimeter=0;" parent="1" source="KAOZLRH-aGIeH3DZMLe1-27" target="KAOZLRH-aGIeH3DZMLe1-6" edge="1">
          <mxGeometry relative="1" as="geometry">
            <mxPoint x="690" y="466" as="targetPoint" />
          </mxGeometry>
        </mxCell>
        <mxCell id="KAOZLRH-aGIeH3DZMLe1-46" value="Name" style="ellipse;whiteSpace=wrap;html=1;align=center;fillColor=#f5f9ff;strokeColor=#6c8ebf;" parent="1" vertex="1">
          <mxGeometry x="570" y="240" width="100" height="40" as="geometry" />
        </mxCell>
        <mxCell id="KAOZLRH-aGIeH3DZMLe1-47" value="Surname" style="ellipse;whiteSpace=wrap;html=1;align=center;fillColor=#f5f9ff;strokeColor=#6c8ebf;" parent="1" vertex="1">
          <mxGeometry x="730" y="240" width="100" height="40" as="geometry" />
        </mxCell>
        <mxCell id="KAOZLRH-aGIeH3DZMLe1-55" style="edgeStyle=orthogonalEdgeStyle;rounded=0;orthogonalLoop=1;jettySize=auto;html=1;exitX=0;exitY=0.5;exitDx=0;exitDy=0;entryX=1;entryY=0.5;entryDx=0;entryDy=0;endArrow=none;endFill=0;" parent="1" source="KAOZLRH-aGIeH3DZMLe1-50" target="KAOZLRH-aGIeH3DZMLe1-31" edge="1">
          <mxGeometry relative="1" as="geometry" />
        </mxCell>
        <mxCell id="KAOZLRH-aGIeH3DZMLe1-50" value="Type" style="ellipse;whiteSpace=wrap;html=1;align=center;fillColor=#dae8fc;strokeColor=#6c8ebf;" parent="1" vertex="1">
          <mxGeometry x="1050" y="400" width="100" height="40" as="geometry" />
        </mxCell>
        <mxCell id="KAOZLRH-aGIeH3DZMLe1-54" style="edgeStyle=orthogonalEdgeStyle;rounded=0;orthogonalLoop=1;jettySize=auto;html=1;exitX=0;exitY=0.5;exitDx=0;exitDy=0;entryX=1;entryY=0.5;entryDx=0;entryDy=0;endArrow=none;endFill=0;" parent="1" source="KAOZLRH-aGIeH3DZMLe1-51" target="KAOZLRH-aGIeH3DZMLe1-32" edge="1">
          <mxGeometry relative="1" as="geometry" />
        </mxCell>
        <mxCell id="KAOZLRH-aGIeH3DZMLe1-51" value="ICU" style="ellipse;whiteSpace=wrap;html=1;align=center;fillColor=#dae8fc;strokeColor=#6c8ebf;" parent="1" vertex="1">
          <mxGeometry x="1050" y="460" width="100" height="40" as="geometry" />
        </mxCell>
        <mxCell id="KAOZLRH-aGIeH3DZMLe1-53" style="edgeStyle=orthogonalEdgeStyle;rounded=0;orthogonalLoop=1;jettySize=auto;html=1;exitX=0;exitY=0.5;exitDx=0;exitDy=0;entryX=1;entryY=0.5;entryDx=0;entryDy=0;endArrow=none;endFill=0;" parent="1" source="KAOZLRH-aGIeH3DZMLe1-52" target="KAOZLRH-aGIeH3DZMLe1-33" edge="1">
          <mxGeometry relative="1" as="geometry" />
        </mxCell>
        <mxCell id="KAOZLRH-aGIeH3DZMLe1-52" value="Interim" style="ellipse;whiteSpace=wrap;html=1;align=center;fillColor=#dae8fc;strokeColor=#6c8ebf;" parent="1" vertex="1">
          <mxGeometry x="1050" y="510" width="100" height="40" as="geometry" />
        </mxCell>
        <mxCell id="KAOZLRH-aGIeH3DZMLe1-56" value="Email" style="ellipse;shape=doubleEllipse;margin=3;whiteSpace=wrap;html=1;align=center;fillColor=#dae8fc;strokeColor=#6c8ebf;" parent="1" vertex="1">
          <mxGeometry x="720" y="360" width="100" height="40" as="geometry" />
        </mxCell>
        <mxCell id="-PxN53votp_5zoNeC1sW-1" value="(1,n)" style="text;html=1;align=center;verticalAlign=middle;resizable=0;points=[];autosize=1;strokeColor=none;fillColor=none;" parent="1" vertex="1">
          <mxGeometry x="605" y="448" width="50" height="30" as="geometry" />
        </mxCell>
        <mxCell id="-PxN53votp_5zoNeC1sW-2" value="(1,n)" style="text;html=1;align=center;verticalAlign=middle;resizable=0;points=[];autosize=1;strokeColor=none;fillColor=none;" parent="1" vertex="1">
          <mxGeometry x="345" y="448" width="50" height="30" as="geometry" />
        </mxCell>
        <mxCell id="-PxN53votp_5zoNeC1sW-3" value="N:M" style="text;html=1;align=center;verticalAlign=middle;resizable=0;points=[];autosize=1;strokeColor=none;fillColor=none;" parent="1" vertex="1">
          <mxGeometry x="475" y="511" width="50" height="30" as="geometry" />
        </mxCell>
        <mxCell id="-PxN53votp_5zoNeC1sW-5" value="(1,n)" style="text;html=1;align=center;verticalAlign=middle;resizable=0;points=[];autosize=1;strokeColor=none;fillColor=none;" parent="1" vertex="1">
          <mxGeometry x="295" y="502" width="50" height="30" as="geometry" />
        </mxCell>
        <mxCell id="-PxN53votp_5zoNeC1sW-6" value="(1,1)" style="text;html=1;align=center;verticalAlign=middle;resizable=0;points=[];autosize=1;strokeColor=none;fillColor=none;" parent="1" vertex="1">
          <mxGeometry x="605" y="641" width="50" height="30" as="geometry" />
        </mxCell>
        <mxCell id="-PxN53votp_5zoNeC1sW-9" value="N:1" style="text;html=1;align=center;verticalAlign=middle;resizable=0;points=[];autosize=1;strokeColor=none;fillColor=none;" parent="1" vertex="1">
          <mxGeometry x="281" y="668" width="40" height="30" as="geometry" />
        </mxCell>
        <mxCell id="-PxN53votp_5zoNeC1sW-10" value="(1,1)" style="text;html=1;align=center;verticalAlign=middle;resizable=0;points=[];autosize=1;strokeColor=none;fillColor=none;" parent="1" vertex="1">
          <mxGeometry x="691" y="588" width="50" height="30" as="geometry" />
        </mxCell>
        <mxCell id="-PxN53votp_5zoNeC1sW-11" value="(1,n)" style="text;html=1;align=center;verticalAlign=middle;resizable=0;points=[];autosize=1;strokeColor=none;fillColor=none;" parent="1" vertex="1">
          <mxGeometry x="690" y="498" width="50" height="30" as="geometry" />
        </mxCell>
        <mxCell id="-PxN53votp_5zoNeC1sW-12" value="N:1" style="text;html=1;align=center;verticalAlign=middle;resizable=0;points=[];autosize=1;strokeColor=none;fillColor=none;" parent="1" vertex="1">
          <mxGeometry x="760" y="538" width="40" height="30" as="geometry" />
        </mxCell>
        <mxCell id="-PxN53votp_5zoNeC1sW-13" value="(0,1)" style="text;html=1;align=center;verticalAlign=middle;resizable=0;points=[];autosize=1;strokeColor=none;fillColor=none;" parent="1" vertex="1">
          <mxGeometry x="891" y="410" width="50" height="30" as="geometry" />
        </mxCell>
        <mxCell id="-PxN53votp_5zoNeC1sW-14" value="(0,1)" style="text;html=1;align=center;verticalAlign=middle;resizable=0;points=[];autosize=1;strokeColor=none;fillColor=none;" parent="1" vertex="1">
          <mxGeometry x="889" y="450" width="50" height="30" as="geometry" />
        </mxCell>
        <mxCell id="-PxN53votp_5zoNeC1sW-15" value="(0,1)" style="text;html=1;align=center;verticalAlign=middle;resizable=0;points=[];autosize=1;strokeColor=none;fillColor=none;" parent="1" vertex="1">
          <mxGeometry x="885" y="508" width="50" height="30" as="geometry" />
        </mxCell>
        <mxCell id="-PxN53votp_5zoNeC1sW-16" value="1:1" style="text;html=1;align=center;verticalAlign=middle;resizable=0;points=[];autosize=1;strokeColor=none;fillColor=none;" parent="1" vertex="1">
          <mxGeometry x="753" y="451" width="40" height="30" as="geometry" />
        </mxCell>
      </root>
    </mxGraphModel>
  </diagram>
  <diagram id="Fqo3TvzHRGFp9V6NPbxw" name="Exercise 3">
    <mxGraphModel dx="1434" dy="769" grid="1" gridSize="10" guides="1" tooltips="1" connect="1" arrows="1" fold="1" page="1" pageScale="1" pageWidth="1169" pageHeight="827" math="0" shadow="0">
      <root>
        <mxCell id="0" />
        <mxCell id="1" parent="0" />
        <mxCell id="5rUf15PwXA0mMUNY7jr6-1" value="&lt;b style=&quot;background-color: transparent; text-align: left;&quot;&gt;&lt;font style=&quot;font-size: 17px;&quot; face=&quot;Courier New&quot;&gt;3. Create a diagram from the following statement:&lt;/font&gt;&lt;/b&gt;" style="text;html=1;align=center;verticalAlign=middle;resizable=0;points=[];autosize=1;strokeColor=none;fillColor=none;" parent="1" vertex="1">
          <mxGeometry x="325" y="10" width="520" height="30" as="geometry" />
        </mxCell>
        <mxCell id="y7kA7KbG3-wNjqDOLj_5-4" style="rounded=0;orthogonalLoop=1;jettySize=auto;html=1;exitX=0;exitY=0.75;exitDx=0;exitDy=0;entryX=1;entryY=0;entryDx=0;entryDy=0;endArrow=none;endFill=0;" parent="1" source="y7kA7KbG3-wNjqDOLj_5-1" target="y7kA7KbG3-wNjqDOLj_5-3" edge="1">
          <mxGeometry relative="1" as="geometry" />
        </mxCell>
        <mxCell id="y7kA7KbG3-wNjqDOLj_5-5" style="rounded=0;orthogonalLoop=1;jettySize=auto;html=1;exitX=0;exitY=0.25;exitDx=0;exitDy=0;entryX=1;entryY=1;entryDx=0;entryDy=0;endArrow=none;endFill=0;" parent="1" source="y7kA7KbG3-wNjqDOLj_5-1" target="y7kA7KbG3-wNjqDOLj_5-2" edge="1">
          <mxGeometry relative="1" as="geometry" />
        </mxCell>
        <mxCell id="y7kA7KbG3-wNjqDOLj_5-1" value="Departaments" style="whiteSpace=wrap;html=1;align=center;fillColor=#b1ddf0;strokeColor=#10739e;" parent="1" vertex="1">
          <mxGeometry x="180" y="330" width="100" height="40" as="geometry" />
        </mxCell>
        <mxCell id="y7kA7KbG3-wNjqDOLj_5-2" value="Name" style="ellipse;whiteSpace=wrap;html=1;align=center;fillColor=#dae8fc;strokeColor=#6c8ebf;" parent="1" vertex="1">
          <mxGeometry x="60" y="290" width="100" height="40" as="geometry" />
        </mxCell>
        <mxCell id="y7kA7KbG3-wNjqDOLj_5-3" value="Internal number" style="ellipse;whiteSpace=wrap;html=1;align=center;fontStyle=4;fillColor=#dae8fc;strokeColor=#6c8ebf;" parent="1" vertex="1">
          <mxGeometry x="60" y="370" width="100" height="40" as="geometry" />
        </mxCell>
        <mxCell id="y7kA7KbG3-wNjqDOLj_5-29" value="" style="rounded=0;orthogonalLoop=1;jettySize=auto;html=1;endArrow=none;endFill=0;" parent="1" source="y7kA7KbG3-wNjqDOLj_5-6" target="y7kA7KbG3-wNjqDOLj_5-28" edge="1">
          <mxGeometry relative="1" as="geometry" />
        </mxCell>
        <mxCell id="y7kA7KbG3-wNjqDOLj_5-30" value="" style="rounded=0;orthogonalLoop=1;jettySize=auto;html=1;endArrow=none;endFill=0;" parent="1" source="y7kA7KbG3-wNjqDOLj_5-6" target="y7kA7KbG3-wNjqDOLj_5-27" edge="1">
          <mxGeometry relative="1" as="geometry" />
        </mxCell>
        <mxCell id="y7kA7KbG3-wNjqDOLj_5-43" style="rounded=0;orthogonalLoop=1;jettySize=auto;html=1;exitX=1;exitY=0;exitDx=0;exitDy=0;entryX=0;entryY=0.5;entryDx=0;entryDy=0;endArrow=none;endFill=0;" parent="1" source="y7kA7KbG3-wNjqDOLj_5-6" target="y7kA7KbG3-wNjqDOLj_5-38" edge="1">
          <mxGeometry relative="1" as="geometry" />
        </mxCell>
        <mxCell id="y7kA7KbG3-wNjqDOLj_5-44" style="rounded=0;orthogonalLoop=1;jettySize=auto;html=1;exitX=0.75;exitY=0;exitDx=0;exitDy=0;entryX=0;entryY=0.5;entryDx=0;entryDy=0;endArrow=none;endFill=0;" parent="1" source="y7kA7KbG3-wNjqDOLj_5-6" target="y7kA7KbG3-wNjqDOLj_5-42" edge="1">
          <mxGeometry relative="1" as="geometry" />
        </mxCell>
        <mxCell id="y7kA7KbG3-wNjqDOLj_5-46" style="rounded=0;orthogonalLoop=1;jettySize=auto;html=1;exitX=0.25;exitY=0;exitDx=0;exitDy=0;entryX=0.5;entryY=1;entryDx=0;entryDy=0;endArrow=none;endFill=0;" parent="1" source="y7kA7KbG3-wNjqDOLj_5-6" target="y7kA7KbG3-wNjqDOLj_5-41" edge="1">
          <mxGeometry relative="1" as="geometry" />
        </mxCell>
        <mxCell id="y7kA7KbG3-wNjqDOLj_5-6" value="Officials" style="whiteSpace=wrap;html=1;align=center;fillColor=#b1ddf0;strokeColor=#10739e;" parent="1" vertex="1">
          <mxGeometry x="550" y="330" width="100" height="40" as="geometry" />
        </mxCell>
        <mxCell id="y7kA7KbG3-wNjqDOLj_5-7" value="are" style="strokeWidth=2;html=1;shape=mxgraph.flowchart.merge_or_storage;whiteSpace=wrap;fillColor=#ffe6cc;strokeColor=#d79b00;" parent="1" vertex="1">
          <mxGeometry x="560" y="390" width="80" height="50" as="geometry" />
        </mxCell>
        <mxCell id="y7kA7KbG3-wNjqDOLj_5-21" style="edgeStyle=orthogonalEdgeStyle;rounded=0;orthogonalLoop=1;jettySize=auto;html=1;exitX=0.5;exitY=0;exitDx=0;exitDy=0;entryX=0.25;entryY=0.58;entryDx=0;entryDy=0;entryPerimeter=0;endArrow=none;endFill=0;" parent="1" source="y7kA7KbG3-wNjqDOLj_5-8" target="y7kA7KbG3-wNjqDOLj_5-7" edge="1">
          <mxGeometry relative="1" as="geometry">
            <mxPoint x="500" y="410" as="targetPoint" />
            <Array as="points">
              <mxPoint x="500" y="420" />
              <mxPoint x="501" y="420" />
              <mxPoint x="501" y="419" />
            </Array>
          </mxGeometry>
        </mxCell>
        <mxCell id="y7kA7KbG3-wNjqDOLj_5-8" value="Driver" style="whiteSpace=wrap;html=1;align=center;fillColor=#b1ddf0;strokeColor=#10739e;" parent="1" vertex="1">
          <mxGeometry x="450" y="450" width="100" height="40" as="geometry" />
        </mxCell>
        <mxCell id="y7kA7KbG3-wNjqDOLj_5-9" value="Administrator" style="whiteSpace=wrap;html=1;align=center;fillColor=#b1ddf0;strokeColor=#10739e;" parent="1" vertex="1">
          <mxGeometry x="550" y="500" width="100" height="40" as="geometry" />
        </mxCell>
        <mxCell id="y7kA7KbG3-wNjqDOLj_5-20" style="rounded=0;orthogonalLoop=1;jettySize=auto;html=1;endArrow=none;endFill=0;edgeStyle=orthogonalEdgeStyle;" parent="1" source="y7kA7KbG3-wNjqDOLj_5-10" edge="1">
          <mxGeometry relative="1" as="geometry">
            <mxPoint x="620" y="420" as="targetPoint" />
            <Array as="points">
              <mxPoint x="700" y="420" />
            </Array>
          </mxGeometry>
        </mxCell>
        <mxCell id="y7kA7KbG3-wNjqDOLj_5-10" value="Technician" style="whiteSpace=wrap;html=1;align=center;fillColor=#b1ddf0;strokeColor=#10739e;" parent="1" vertex="1">
          <mxGeometry x="650" y="450" width="100" height="40" as="geometry" />
        </mxCell>
        <mxCell id="y7kA7KbG3-wNjqDOLj_5-22" style="rounded=0;orthogonalLoop=1;jettySize=auto;html=1;entryX=0.75;entryY=1;entryDx=0;entryDy=0;endArrow=none;endFill=0;" parent="1" source="y7kA7KbG3-wNjqDOLj_5-11" target="y7kA7KbG3-wNjqDOLj_5-10" edge="1">
          <mxGeometry relative="1" as="geometry" />
        </mxCell>
        <mxCell id="y7kA7KbG3-wNjqDOLj_5-11" value="Specialties" style="ellipse;whiteSpace=wrap;html=1;align=center;fillColor=#dae8fc;strokeColor=#6c8ebf;" parent="1" vertex="1">
          <mxGeometry x="740" y="530" width="100" height="40" as="geometry" />
        </mxCell>
        <mxCell id="y7kA7KbG3-wNjqDOLj_5-17" style="rounded=0;orthogonalLoop=1;jettySize=auto;html=1;entryX=0.5;entryY=1;entryDx=0;entryDy=0;endArrow=none;endFill=0;" parent="1" source="y7kA7KbG3-wNjqDOLj_5-12" target="y7kA7KbG3-wNjqDOLj_5-9" edge="1">
          <mxGeometry relative="1" as="geometry" />
        </mxCell>
        <mxCell id="y7kA7KbG3-wNjqDOLj_5-12" value="Languages you&lt;br&gt;speak" style="ellipse;whiteSpace=wrap;html=1;align=center;fillColor=#dae8fc;strokeColor=#6c8ebf;" parent="1" vertex="1">
          <mxGeometry x="550" y="580" width="100" height="40" as="geometry" />
        </mxCell>
        <mxCell id="y7kA7KbG3-wNjqDOLj_5-16" style="rounded=0;orthogonalLoop=1;jettySize=auto;html=1;entryX=0.5;entryY=1;entryDx=0;entryDy=0;endArrow=none;endFill=0;" parent="1" source="y7kA7KbG3-wNjqDOLj_5-14" target="y7kA7KbG3-wNjqDOLj_5-8" edge="1">
          <mxGeometry relative="1" as="geometry" />
        </mxCell>
        <mxCell id="y7kA7KbG3-wNjqDOLj_5-14" value="License number" style="ellipse;whiteSpace=wrap;html=1;align=center;fillColor=#dae8fc;strokeColor=#6c8ebf;" parent="1" vertex="1">
          <mxGeometry x="370" y="520" width="100" height="40" as="geometry" />
        </mxCell>
        <mxCell id="y7kA7KbG3-wNjqDOLj_5-18" value="" style="rounded=0;orthogonalLoop=1;jettySize=auto;html=1;endArrow=none;endFill=0;" parent="1" source="y7kA7KbG3-wNjqDOLj_5-15" target="y7kA7KbG3-wNjqDOLj_5-8" edge="1">
          <mxGeometry relative="1" as="geometry" />
        </mxCell>
        <mxCell id="y7kA7KbG3-wNjqDOLj_5-15" value="Number of accidents" style="ellipse;whiteSpace=wrap;html=1;align=center;fillColor=#dae8fc;strokeColor=#6c8ebf;" parent="1" vertex="1">
          <mxGeometry x="310" y="450" width="100" height="40" as="geometry" />
        </mxCell>
        <mxCell id="y7kA7KbG3-wNjqDOLj_5-19" style="edgeStyle=orthogonalEdgeStyle;rounded=0;orthogonalLoop=1;jettySize=auto;html=1;entryX=0.5;entryY=1;entryDx=0;entryDy=0;entryPerimeter=0;endArrow=none;endFill=0;" parent="1" source="y7kA7KbG3-wNjqDOLj_5-9" target="y7kA7KbG3-wNjqDOLj_5-7" edge="1">
          <mxGeometry relative="1" as="geometry" />
        </mxCell>
        <mxCell id="y7kA7KbG3-wNjqDOLj_5-24" value="" style="rounded=0;orthogonalLoop=1;jettySize=auto;html=1;endArrow=none;endFill=0;" parent="1" source="y7kA7KbG3-wNjqDOLj_5-23" target="y7kA7KbG3-wNjqDOLj_5-6" edge="1">
          <mxGeometry relative="1" as="geometry" />
        </mxCell>
        <mxCell id="y7kA7KbG3-wNjqDOLj_5-25" value="" style="rounded=0;orthogonalLoop=1;jettySize=auto;html=1;endArrow=none;endFill=0;" parent="1" source="y7kA7KbG3-wNjqDOLj_5-23" target="y7kA7KbG3-wNjqDOLj_5-1" edge="1">
          <mxGeometry relative="1" as="geometry" />
        </mxCell>
        <mxCell id="y7kA7KbG3-wNjqDOLj_5-23" value="have" style="shape=rhombus;perimeter=rhombusPerimeter;whiteSpace=wrap;html=1;align=center;fillColor=#ffe6cc;strokeColor=#d79b00;" parent="1" vertex="1">
          <mxGeometry x="357" y="320" width="120" height="60" as="geometry" />
        </mxCell>
        <mxCell id="y7kA7KbG3-wNjqDOLj_5-26" style="edgeStyle=orthogonalEdgeStyle;rounded=0;orthogonalLoop=1;jettySize=auto;html=1;entryX=0.5;entryY=0;entryDx=0;entryDy=0;entryPerimeter=0;endArrow=none;endFill=0;" parent="1" source="y7kA7KbG3-wNjqDOLj_5-6" target="y7kA7KbG3-wNjqDOLj_5-7" edge="1">
          <mxGeometry relative="1" as="geometry" />
        </mxCell>
        <mxCell id="y7kA7KbG3-wNjqDOLj_5-34" value="" style="rounded=0;orthogonalLoop=1;jettySize=auto;html=1;endArrow=none;endFill=0;" parent="1" source="y7kA7KbG3-wNjqDOLj_5-27" target="y7kA7KbG3-wNjqDOLj_5-32" edge="1">
          <mxGeometry relative="1" as="geometry" />
        </mxCell>
        <mxCell id="y7kA7KbG3-wNjqDOLj_5-27" value="driven by" style="shape=rhombus;perimeter=rhombusPerimeter;whiteSpace=wrap;html=1;align=center;fillColor=#ffe6cc;strokeColor=#d79b00;" parent="1" vertex="1">
          <mxGeometry x="399" y="239" width="120" height="60" as="geometry" />
        </mxCell>
        <mxCell id="y7kA7KbG3-wNjqDOLj_5-33" value="" style="rounded=0;orthogonalLoop=1;jettySize=auto;html=1;endArrow=none;endFill=0;" parent="1" source="y7kA7KbG3-wNjqDOLj_5-28" target="y7kA7KbG3-wNjqDOLj_5-31" edge="1">
          <mxGeometry relative="1" as="geometry" />
        </mxCell>
        <mxCell id="y7kA7KbG3-wNjqDOLj_5-28" value="do" style="shape=rhombus;perimeter=rhombusPerimeter;whiteSpace=wrap;html=1;align=center;fillColor=#ffe6cc;strokeColor=#d79b00;" parent="1" vertex="1">
          <mxGeometry x="770" y="320" width="120" height="60" as="geometry" />
        </mxCell>
        <mxCell id="y7kA7KbG3-wNjqDOLj_5-55" style="rounded=0;orthogonalLoop=1;jettySize=auto;html=1;exitX=1;exitY=1;exitDx=0;exitDy=0;entryX=0;entryY=0.5;entryDx=0;entryDy=0;endArrow=none;endFill=0;" parent="1" source="y7kA7KbG3-wNjqDOLj_5-31" target="y7kA7KbG3-wNjqDOLj_5-54" edge="1">
          <mxGeometry relative="1" as="geometry" />
        </mxCell>
        <mxCell id="y7kA7KbG3-wNjqDOLj_5-56" style="rounded=0;orthogonalLoop=1;jettySize=auto;html=1;exitX=1;exitY=0.75;exitDx=0;exitDy=0;entryX=0;entryY=0.5;entryDx=0;entryDy=0;endArrow=none;endFill=0;" parent="1" source="y7kA7KbG3-wNjqDOLj_5-31" target="y7kA7KbG3-wNjqDOLj_5-53" edge="1">
          <mxGeometry relative="1" as="geometry" />
        </mxCell>
        <mxCell id="y7kA7KbG3-wNjqDOLj_5-57" style="rounded=0;orthogonalLoop=1;jettySize=auto;html=1;exitX=1;exitY=0.25;exitDx=0;exitDy=0;entryX=0;entryY=0.5;entryDx=0;entryDy=0;endArrow=none;endFill=0;" parent="1" source="y7kA7KbG3-wNjqDOLj_5-31" target="y7kA7KbG3-wNjqDOLj_5-52" edge="1">
          <mxGeometry relative="1" as="geometry" />
        </mxCell>
        <mxCell id="y7kA7KbG3-wNjqDOLj_5-58" style="rounded=0;orthogonalLoop=1;jettySize=auto;html=1;exitX=1;exitY=0;exitDx=0;exitDy=0;entryX=0;entryY=0.5;entryDx=0;entryDy=0;endArrow=none;endFill=0;" parent="1" source="y7kA7KbG3-wNjqDOLj_5-31" target="y7kA7KbG3-wNjqDOLj_5-51" edge="1">
          <mxGeometry relative="1" as="geometry" />
        </mxCell>
        <mxCell id="y7kA7KbG3-wNjqDOLj_5-31" value="Projects" style="whiteSpace=wrap;html=1;align=center;fillColor=#b1ddf0;strokeColor=#10739e;" parent="1" vertex="1">
          <mxGeometry x="920" y="330" width="100" height="40" as="geometry" />
        </mxCell>
        <mxCell id="y7kA7KbG3-wNjqDOLj_5-49" style="edgeStyle=orthogonalEdgeStyle;rounded=0;orthogonalLoop=1;jettySize=auto;html=1;entryX=0.5;entryY=1;entryDx=0;entryDy=0;" parent="1" source="y7kA7KbG3-wNjqDOLj_5-32" target="y7kA7KbG3-wNjqDOLj_5-48" edge="1">
          <mxGeometry relative="1" as="geometry" />
        </mxCell>
        <mxCell id="y7kA7KbG3-wNjqDOLj_5-50" style="edgeStyle=orthogonalEdgeStyle;rounded=0;orthogonalLoop=1;jettySize=auto;html=1;entryX=1;entryY=0.5;entryDx=0;entryDy=0;" parent="1" source="y7kA7KbG3-wNjqDOLj_5-32" target="y7kA7KbG3-wNjqDOLj_5-36" edge="1">
          <mxGeometry relative="1" as="geometry" />
        </mxCell>
        <mxCell id="y7kA7KbG3-wNjqDOLj_5-32" value="Cars" style="whiteSpace=wrap;html=1;align=center;fillColor=#b1ddf0;strokeColor=#10739e;" parent="1" vertex="1">
          <mxGeometry x="300" y="175" width="100" height="40" as="geometry" />
        </mxCell>
        <mxCell id="y7kA7KbG3-wNjqDOLj_5-36" value="License plate" style="ellipse;whiteSpace=wrap;html=1;align=center;fontStyle=4;fillColor=#dae8fc;strokeColor=#6c8ebf;" parent="1" vertex="1">
          <mxGeometry x="150" y="175" width="100" height="40" as="geometry" />
        </mxCell>
        <mxCell id="y7kA7KbG3-wNjqDOLj_5-38" value="Name" style="ellipse;whiteSpace=wrap;html=1;align=center;fillColor=#dae8fc;strokeColor=#6c8ebf;" parent="1" vertex="1">
          <mxGeometry x="705" y="290" width="100" height="40" as="geometry" />
        </mxCell>
        <mxCell id="y7kA7KbG3-wNjqDOLj_5-39" value="Number" style="ellipse;whiteSpace=wrap;html=1;align=center;fontStyle=4;fillColor=#dae8fc;strokeColor=#6c8ebf;" parent="1" vertex="1">
          <mxGeometry x="605" y="215" width="100" height="40" as="geometry" />
        </mxCell>
        <mxCell id="y7kA7KbG3-wNjqDOLj_5-41" value="Address" style="ellipse;whiteSpace=wrap;html=1;align=center;fillColor=#dae8fc;strokeColor=#6c8ebf;" parent="1" vertex="1">
          <mxGeometry x="500" y="215" width="100" height="40" as="geometry" />
        </mxCell>
        <mxCell id="y7kA7KbG3-wNjqDOLj_5-42" value="Departament" style="ellipse;whiteSpace=wrap;html=1;align=center;fillColor=#dae8fc;strokeColor=#6c8ebf;" parent="1" vertex="1">
          <mxGeometry x="684" y="246" width="100" height="40" as="geometry" />
        </mxCell>
        <mxCell id="y7kA7KbG3-wNjqDOLj_5-45" style="rounded=0;orthogonalLoop=1;jettySize=auto;html=1;entryX=0.22;entryY=0.95;entryDx=0;entryDy=0;entryPerimeter=0;endArrow=none;endFill=0;" parent="1" source="y7kA7KbG3-wNjqDOLj_5-6" target="y7kA7KbG3-wNjqDOLj_5-39" edge="1">
          <mxGeometry relative="1" as="geometry" />
        </mxCell>
        <mxCell id="y7kA7KbG3-wNjqDOLj_5-48" value="Register dates&lt;br&gt;of drivers" style="ellipse;shape=doubleEllipse;margin=3;whiteSpace=wrap;html=1;align=center;fillColor=#dae8fc;strokeColor=#6c8ebf;" parent="1" vertex="1">
          <mxGeometry x="300" y="100" width="100" height="40" as="geometry" />
        </mxCell>
        <mxCell id="y7kA7KbG3-wNjqDOLj_5-51" value="ID" style="ellipse;whiteSpace=wrap;html=1;align=center;fontStyle=4;fillColor=#dae8fc;strokeColor=#6c8ebf;" parent="1" vertex="1">
          <mxGeometry x="1041" y="251" width="100" height="40" as="geometry" />
        </mxCell>
        <mxCell id="y7kA7KbG3-wNjqDOLj_5-52" value="Number" style="ellipse;whiteSpace=wrap;html=1;align=center;fillColor=#dae8fc;strokeColor=#6c8ebf;" parent="1" vertex="1">
          <mxGeometry x="1041" y="301" width="100" height="40" as="geometry" />
        </mxCell>
        <mxCell id="y7kA7KbG3-wNjqDOLj_5-53" value="Start date" style="ellipse;whiteSpace=wrap;html=1;align=center;fillColor=#dae8fc;strokeColor=#6c8ebf;" parent="1" vertex="1">
          <mxGeometry x="1041" y="351" width="100" height="40" as="geometry" />
        </mxCell>
        <mxCell id="y7kA7KbG3-wNjqDOLj_5-54" value="Start date" style="ellipse;whiteSpace=wrap;html=1;align=center;fillColor=#dae8fc;strokeColor=#6c8ebf;" parent="1" vertex="1">
          <mxGeometry x="1041" y="401" width="100" height="40" as="geometry" />
        </mxCell>
        <mxCell id="y7kA7KbG3-wNjqDOLj_5-59" value="(0,1)" style="text;html=1;align=center;verticalAlign=middle;resizable=0;points=[];autosize=1;strokeColor=none;fillColor=none;" parent="1" vertex="1">
          <mxGeometry x="695" y="418" width="50" height="30" as="geometry" />
        </mxCell>
        <mxCell id="5ABXMakelRQ11JUlILNp-1" value="(0,1)" style="text;html=1;align=center;verticalAlign=middle;resizable=0;points=[];autosize=1;strokeColor=none;fillColor=none;" parent="1" vertex="1">
          <mxGeometry x="592" y="469" width="50" height="30" as="geometry" />
        </mxCell>
        <mxCell id="5ABXMakelRQ11JUlILNp-2" value="(0,1)" style="text;html=1;align=center;verticalAlign=middle;resizable=0;points=[];autosize=1;strokeColor=none;fillColor=none;" parent="1" vertex="1">
          <mxGeometry x="490" y="423" width="50" height="30" as="geometry" />
        </mxCell>
        <mxCell id="5ABXMakelRQ11JUlILNp-3" value="1:1" style="text;html=1;align=center;verticalAlign=middle;resizable=0;points=[];autosize=1;strokeColor=none;fillColor=none;" parent="1" vertex="1">
          <mxGeometry x="599" y="365" width="40" height="30" as="geometry" />
        </mxCell>
        <mxCell id="PYV18NmyfkwKfskaDHEx-1" value="(1,n)" style="text;html=1;align=center;verticalAlign=middle;resizable=0;points=[];autosize=1;strokeColor=none;fillColor=none;" parent="1" vertex="1">
          <mxGeometry x="393" y="191" width="50" height="30" as="geometry" />
        </mxCell>
        <mxCell id="PYV18NmyfkwKfskaDHEx-2" value="(1,n)" style="text;html=1;align=center;verticalAlign=middle;resizable=0;points=[];autosize=1;strokeColor=none;fillColor=none;" parent="1" vertex="1">
          <mxGeometry x="509" y="311" width="50" height="30" as="geometry" />
        </mxCell>
        <mxCell id="PYV18NmyfkwKfskaDHEx-3" value="1:N" style="text;html=1;align=center;verticalAlign=middle;resizable=0;points=[];autosize=1;strokeColor=none;fillColor=none;" parent="1" vertex="1">
          <mxGeometry x="362" y="255" width="40" height="30" as="geometry" />
        </mxCell>
        <mxCell id="PYV18NmyfkwKfskaDHEx-4" value="(1,1)" style="text;html=1;align=center;verticalAlign=middle;resizable=0;points=[];autosize=1;strokeColor=none;fillColor=none;" parent="1" vertex="1">
          <mxGeometry x="270" y="344" width="50" height="30" as="geometry" />
        </mxCell>
        <mxCell id="PYV18NmyfkwKfskaDHEx-5" value="(1,n)" style="text;html=1;align=center;verticalAlign=middle;resizable=0;points=[];autosize=1;strokeColor=none;fillColor=none;" parent="1" vertex="1">
          <mxGeometry x="511" y="348" width="50" height="30" as="geometry" />
        </mxCell>
        <mxCell id="PYV18NmyfkwKfskaDHEx-6" value="1:N" style="text;html=1;align=center;verticalAlign=middle;resizable=0;points=[];autosize=1;strokeColor=none;fillColor=none;" parent="1" vertex="1">
          <mxGeometry x="398" y="379" width="40" height="30" as="geometry" />
        </mxCell>
        <mxCell id="PYV18NmyfkwKfskaDHEx-7" value="(1,n)" style="text;html=1;align=center;verticalAlign=middle;resizable=0;points=[];autosize=1;strokeColor=none;fillColor=none;" parent="1" vertex="1">
          <mxGeometry x="645" y="348" width="50" height="30" as="geometry" />
        </mxCell>
        <mxCell id="PYV18NmyfkwKfskaDHEx-8" value="(1,n)" style="text;html=1;align=center;verticalAlign=middle;resizable=0;points=[];autosize=1;strokeColor=none;fillColor=none;" parent="1" vertex="1">
          <mxGeometry x="875" y="358" width="50" height="30" as="geometry" />
        </mxCell>
        <mxCell id="PYV18NmyfkwKfskaDHEx-9" value="N:M" style="text;html=1;align=center;verticalAlign=middle;resizable=0;points=[];autosize=1;strokeColor=none;fillColor=none;" parent="1" vertex="1">
          <mxGeometry x="805" y="378" width="50" height="30" as="geometry" />
        </mxCell>
      </root>
    </mxGraphModel>
  </diagram>
  <diagram id="yhGxsQarfnTCvj8WzM0i" name="Exercise 4">
    <mxGraphModel dx="1434" dy="769" grid="1" gridSize="10" guides="1" tooltips="1" connect="1" arrows="1" fold="1" page="1" pageScale="1" pageWidth="980" pageHeight="690" math="0" shadow="0">
      <root>
        <mxCell id="0" />
        <mxCell id="1" parent="0" />
        <mxCell id="fXdH0yr8iYaNGEx8mTUp-1" value="&lt;b style=&quot;font-size: 12pt; background-color: transparent; text-align: start;&quot;&gt;&lt;font face=&quot;Courier New&quot;&gt;4. Create a diagram from the following statement:&lt;/font&gt;&lt;/b&gt;" style="text;html=1;align=center;verticalAlign=middle;resizable=0;points=[];autosize=1;strokeColor=none;fillColor=none;" parent="1" vertex="1">
          <mxGeometry x="245" y="10" width="490" height="30" as="geometry" />
        </mxCell>
        <mxCell id="2o8tJ9-CgRHtiqZwZskV-2" value="Number of complexes" style="ellipse;whiteSpace=wrap;html=1;align=center;fillColor=#dae8fc;strokeColor=#6c8ebf;" parent="1" vertex="1">
          <mxGeometry x="790" y="435" width="100" height="40" as="geometry" />
        </mxCell>
        <mxCell id="2o8tJ9-CgRHtiqZwZskV-3" value="Approximate budget" style="ellipse;whiteSpace=wrap;html=1;align=center;fillColor=#dae8fc;strokeColor=#6c8ebf;" parent="1" vertex="1">
          <mxGeometry x="790" y="375" width="100" height="40" as="geometry" />
        </mxCell>
        <mxCell id="2o8tJ9-CgRHtiqZwZskV-4" value="Event" style="whiteSpace=wrap;html=1;align=center;fillColor=#b1ddf0;strokeColor=#10739e;" parent="1" vertex="1">
          <mxGeometry x="295" y="401" width="100" height="40" as="geometry" />
        </mxCell>
        <mxCell id="2o8tJ9-CgRHtiqZwZskV-11" style="rounded=0;orthogonalLoop=1;jettySize=auto;html=1;entryX=0;entryY=0;entryDx=0;entryDy=0;endArrow=none;endFill=0;" parent="1" source="2o8tJ9-CgRHtiqZwZskV-5" target="2o8tJ9-CgRHtiqZwZskV-4" edge="1">
          <mxGeometry relative="1" as="geometry" />
        </mxCell>
        <mxCell id="2o8tJ9-CgRHtiqZwZskV-5" value="Date" style="ellipse;whiteSpace=wrap;html=1;align=center;fillColor=#dae8fc;strokeColor=#6c8ebf;" parent="1" vertex="1">
          <mxGeometry x="120" y="354" width="100" height="40" as="geometry" />
        </mxCell>
        <mxCell id="2o8tJ9-CgRHtiqZwZskV-10" style="rounded=0;orthogonalLoop=1;jettySize=auto;html=1;entryX=0.25;entryY=0;entryDx=0;entryDy=0;endArrow=none;endFill=0;" parent="1" source="2o8tJ9-CgRHtiqZwZskV-6" target="2o8tJ9-CgRHtiqZwZskV-4" edge="1">
          <mxGeometry relative="1" as="geometry" />
        </mxCell>
        <mxCell id="2o8tJ9-CgRHtiqZwZskV-6" value="Duration" style="ellipse;whiteSpace=wrap;html=1;align=center;fillColor=#dae8fc;strokeColor=#6c8ebf;" parent="1" vertex="1">
          <mxGeometry x="170" y="305" width="100" height="40" as="geometry" />
        </mxCell>
        <mxCell id="2o8tJ9-CgRHtiqZwZskV-12" style="rounded=0;orthogonalLoop=1;jettySize=auto;html=1;entryX=0;entryY=0.5;entryDx=0;entryDy=0;endArrow=none;endFill=0;" parent="1" source="2o8tJ9-CgRHtiqZwZskV-7" target="2o8tJ9-CgRHtiqZwZskV-4" edge="1">
          <mxGeometry relative="1" as="geometry" />
        </mxCell>
        <mxCell id="2o8tJ9-CgRHtiqZwZskV-7" value="Number of&lt;br&gt;participants" style="ellipse;whiteSpace=wrap;html=1;align=center;fillColor=#dae8fc;strokeColor=#6c8ebf;" parent="1" vertex="1">
          <mxGeometry x="110" y="415" width="100" height="40" as="geometry" />
        </mxCell>
        <mxCell id="2o8tJ9-CgRHtiqZwZskV-13" value="" style="rounded=0;orthogonalLoop=1;jettySize=auto;html=1;endArrow=none;endFill=0;entryX=0;entryY=1;entryDx=0;entryDy=0;" parent="1" source="2o8tJ9-CgRHtiqZwZskV-8" target="2o8tJ9-CgRHtiqZwZskV-4" edge="1">
          <mxGeometry relative="1" as="geometry" />
        </mxCell>
        <mxCell id="2o8tJ9-CgRHtiqZwZskV-8" value="Number of&lt;br&gt;commissioners" style="ellipse;whiteSpace=wrap;html=1;align=center;fillColor=#dae8fc;strokeColor=#6c8ebf;" parent="1" vertex="1">
          <mxGeometry x="132" y="475" width="100" height="40" as="geometry" />
        </mxCell>
        <mxCell id="2o8tJ9-CgRHtiqZwZskV-14" style="rounded=0;orthogonalLoop=1;jettySize=auto;html=1;entryX=0.25;entryY=1;entryDx=0;entryDy=0;endArrow=none;endFill=0;" parent="1" source="2o8tJ9-CgRHtiqZwZskV-9" target="2o8tJ9-CgRHtiqZwZskV-4" edge="1">
          <mxGeometry relative="1" as="geometry" />
        </mxCell>
        <mxCell id="2o8tJ9-CgRHtiqZwZskV-9" value="Save the equipment that will be used" style="ellipse;whiteSpace=wrap;html=1;align=center;fillColor=#dae8fc;strokeColor=#6c8ebf;" parent="1" vertex="1">
          <mxGeometry x="223" y="507" width="100" height="55" as="geometry" />
        </mxCell>
        <mxCell id="pxsL8ZpPABoNu5EpN0QS-3" value="" style="rounded=0;orthogonalLoop=1;jettySize=auto;html=1;endArrow=none;endFill=0;" parent="1" source="2o8tJ9-CgRHtiqZwZskV-15" target="pxsL8ZpPABoNu5EpN0QS-1" edge="1">
          <mxGeometry relative="1" as="geometry" />
        </mxCell>
        <mxCell id="pxsL8ZpPABoNu5EpN0QS-11" style="edgeStyle=orthogonalEdgeStyle;rounded=0;orthogonalLoop=1;jettySize=auto;html=1;" parent="1" source="2o8tJ9-CgRHtiqZwZskV-15" edge="1">
          <mxGeometry relative="1" as="geometry">
            <mxPoint x="460" y="133" as="targetPoint" />
            <Array as="points">
              <mxPoint x="345" y="133" />
            </Array>
          </mxGeometry>
        </mxCell>
        <mxCell id="2o8tJ9-CgRHtiqZwZskV-15" value="Stewards" style="whiteSpace=wrap;html=1;align=center;fillColor=#b1ddf0;strokeColor=#10739e;" parent="1" vertex="1">
          <mxGeometry x="295" y="193" width="100" height="40" as="geometry" />
        </mxCell>
        <mxCell id="pxsL8ZpPABoNu5EpN0QS-7" style="rounded=0;orthogonalLoop=1;jettySize=auto;html=1;entryX=0;entryY=0.5;entryDx=0;entryDy=0;endArrow=none;endFill=0;" parent="1" source="2o8tJ9-CgRHtiqZwZskV-16" target="2o8tJ9-CgRHtiqZwZskV-2" edge="1">
          <mxGeometry relative="1" as="geometry" />
        </mxCell>
        <mxCell id="pxsL8ZpPABoNu5EpN0QS-8" style="rounded=0;orthogonalLoop=1;jettySize=auto;html=1;entryX=0;entryY=0.5;entryDx=0;entryDy=0;endArrow=none;endFill=0;" parent="1" source="2o8tJ9-CgRHtiqZwZskV-16" target="2o8tJ9-CgRHtiqZwZskV-3" edge="1">
          <mxGeometry relative="1" as="geometry" />
        </mxCell>
        <mxCell id="uIM1-cBb9AkmPgG77cUd-3" style="edgeStyle=orthogonalEdgeStyle;rounded=0;orthogonalLoop=1;jettySize=auto;html=1;entryX=0.5;entryY=1;entryDx=0;entryDy=0;" edge="1" parent="1" source="2o8tJ9-CgRHtiqZwZskV-16" target="pxsL8ZpPABoNu5EpN0QS-54">
          <mxGeometry relative="1" as="geometry" />
        </mxCell>
        <mxCell id="2o8tJ9-CgRHtiqZwZskV-16" value="Venue" style="whiteSpace=wrap;html=1;align=center;fillColor=#b1ddf0;strokeColor=#10739e;" parent="1" vertex="1">
          <mxGeometry x="640" y="401" width="100" height="40" as="geometry" />
        </mxCell>
        <mxCell id="pxsL8ZpPABoNu5EpN0QS-9" style="rounded=0;orthogonalLoop=1;jettySize=auto;html=1;entryX=0;entryY=0.5;entryDx=0;entryDy=0;endArrow=none;endFill=0;" parent="1" source="2o8tJ9-CgRHtiqZwZskV-17" target="2o8tJ9-CgRHtiqZwZskV-16" edge="1">
          <mxGeometry relative="1" as="geometry" />
        </mxCell>
        <mxCell id="pxsL8ZpPABoNu5EpN0QS-10" style="rounded=0;orthogonalLoop=1;jettySize=auto;html=1;entryX=1;entryY=0.5;entryDx=0;entryDy=0;endArrow=none;endFill=0;" parent="1" source="2o8tJ9-CgRHtiqZwZskV-17" target="2o8tJ9-CgRHtiqZwZskV-4" edge="1">
          <mxGeometry relative="1" as="geometry" />
        </mxCell>
        <mxCell id="2o8tJ9-CgRHtiqZwZskV-17" value="are in" style="shape=rhombus;perimeter=rhombusPerimeter;whiteSpace=wrap;html=1;align=center;fillColor=#ffe6cc;strokeColor=#d79b00;" parent="1" vertex="1">
          <mxGeometry x="458" y="391" width="120" height="60" as="geometry" />
        </mxCell>
        <mxCell id="2o8tJ9-CgRHtiqZwZskV-18" value="are" style="strokeWidth=2;html=1;shape=mxgraph.flowchart.merge_or_storage;whiteSpace=wrap;fillColor=#ffe6cc;strokeColor=#d79b00;" parent="1" vertex="1">
          <mxGeometry x="691" y="610" width="80" height="49" as="geometry" />
        </mxCell>
        <mxCell id="pxsL8ZpPABoNu5EpN0QS-6" style="rounded=0;orthogonalLoop=1;jettySize=auto;html=1;entryX=0.215;entryY=0.496;entryDx=0;entryDy=0;entryPerimeter=0;exitX=0.5;exitY=0;exitDx=0;exitDy=0;endArrow=none;endFill=0;" parent="1" source="2o8tJ9-CgRHtiqZwZskV-19" target="2o8tJ9-CgRHtiqZwZskV-18" edge="1">
          <mxGeometry relative="1" as="geometry">
            <mxPoint x="710.04" y="631.999" as="targetPoint" />
          </mxGeometry>
        </mxCell>
        <mxCell id="2o8tJ9-CgRHtiqZwZskV-19" value="Single sports" style="whiteSpace=wrap;html=1;align=center;fillColor=#b1ddf0;strokeColor=#10739e;" parent="1" vertex="1">
          <mxGeometry x="612" y="674" width="100" height="40" as="geometry" />
        </mxCell>
        <mxCell id="2o8tJ9-CgRHtiqZwZskV-20" value="Multi-sports" style="whiteSpace=wrap;html=1;align=center;fillColor=#b1ddf0;strokeColor=#10739e;" parent="1" vertex="1">
          <mxGeometry x="751" y="674" width="100" height="40" as="geometry" />
        </mxCell>
        <mxCell id="pxsL8ZpPABoNu5EpN0QS-2" value="" style="rounded=0;orthogonalLoop=1;jettySize=auto;html=1;endArrow=none;endFill=0;" parent="1" source="pxsL8ZpPABoNu5EpN0QS-1" target="2o8tJ9-CgRHtiqZwZskV-4" edge="1">
          <mxGeometry relative="1" as="geometry" />
        </mxCell>
        <mxCell id="pxsL8ZpPABoNu5EpN0QS-1" value="oversee" style="shape=rhombus;perimeter=rhombusPerimeter;whiteSpace=wrap;html=1;align=center;fillColor=#ffe6cc;strokeColor=#d79b00;" parent="1" vertex="1">
          <mxGeometry x="285" y="270" width="120" height="60" as="geometry" />
        </mxCell>
        <mxCell id="pxsL8ZpPABoNu5EpN0QS-5" style="rounded=0;orthogonalLoop=1;jettySize=auto;html=1;exitX=0.5;exitY=0;exitDx=0;exitDy=0;entryX=0.785;entryY=0.488;entryDx=0;entryDy=0;entryPerimeter=0;endArrow=none;endFill=0;" parent="1" source="2o8tJ9-CgRHtiqZwZskV-20" target="2o8tJ9-CgRHtiqZwZskV-18" edge="1">
          <mxGeometry relative="1" as="geometry">
            <mxPoint x="751.8800000000001" y="631.2149999999999" as="targetPoint" />
          </mxGeometry>
        </mxCell>
        <mxCell id="pxsL8ZpPABoNu5EpN0QS-13" style="edgeStyle=orthogonalEdgeStyle;rounded=0;orthogonalLoop=1;jettySize=auto;html=1;entryX=1;entryY=0.5;entryDx=0;entryDy=0;endArrow=none;endFill=0;" parent="1" source="pxsL8ZpPABoNu5EpN0QS-12" target="2o8tJ9-CgRHtiqZwZskV-15" edge="1">
          <mxGeometry relative="1" as="geometry">
            <mxPoint x="480" y="223" as="targetPoint" />
            <Array as="points">
              <mxPoint x="480" y="213" />
            </Array>
          </mxGeometry>
        </mxCell>
        <mxCell id="pxsL8ZpPABoNu5EpN0QS-12" value="are" style="shape=rhombus;perimeter=rhombusPerimeter;whiteSpace=wrap;html=1;align=center;fillColor=#ffe6cc;strokeColor=#d79b00;" parent="1" vertex="1">
          <mxGeometry x="420" y="103" width="120" height="60" as="geometry" />
        </mxCell>
        <mxCell id="pxsL8ZpPABoNu5EpN0QS-15" value="judge" style="text;html=1;align=center;verticalAlign=middle;resizable=0;points=[];autosize=1;strokeColor=none;fillColor=none;" parent="1" vertex="1">
          <mxGeometry x="355" y="108" width="50" height="30" as="geometry" />
        </mxCell>
        <mxCell id="pxsL8ZpPABoNu5EpN0QS-16" value="steward" style="text;html=1;align=center;verticalAlign=middle;resizable=0;points=[];autosize=1;strokeColor=none;fillColor=none;" parent="1" vertex="1">
          <mxGeometry x="425" y="209" width="70" height="30" as="geometry" />
        </mxCell>
        <mxCell id="pxsL8ZpPABoNu5EpN0QS-17" value="area designed" style="ellipse;whiteSpace=wrap;html=1;align=center;fillColor=#dae8fc;strokeColor=#6c8ebf;" parent="1" vertex="1">
          <mxGeometry x="820" y="315" width="100" height="40" as="geometry" />
        </mxCell>
        <mxCell id="pxsL8ZpPABoNu5EpN0QS-30" style="rounded=0;orthogonalLoop=1;jettySize=auto;html=1;entryX=0.25;entryY=0;entryDx=0;entryDy=0;endArrow=none;endFill=0;" parent="1" target="2o8tJ9-CgRHtiqZwZskV-16" edge="1">
          <mxGeometry relative="1" as="geometry">
            <mxPoint x="648.7895319241829" y="364.6885515101703" as="sourcePoint" />
          </mxGeometry>
        </mxCell>
        <mxCell id="pxsL8ZpPABoNu5EpN0QS-32" style="rounded=0;orthogonalLoop=1;jettySize=auto;html=1;entryX=0.5;entryY=1;entryDx=0;entryDy=0;endArrow=none;endFill=0;" parent="1" source="pxsL8ZpPABoNu5EpN0QS-31" target="2o8tJ9-CgRHtiqZwZskV-4" edge="1">
          <mxGeometry relative="1" as="geometry" />
        </mxCell>
        <mxCell id="pxsL8ZpPABoNu5EpN0QS-31" value="ID" style="ellipse;whiteSpace=wrap;html=1;align=center;fontStyle=4;fillColor=#dae8fc;strokeColor=#6c8ebf;" parent="1" vertex="1">
          <mxGeometry x="338" y="535" width="100" height="40" as="geometry" />
        </mxCell>
        <mxCell id="pxsL8ZpPABoNu5EpN0QS-44" style="rounded=0;orthogonalLoop=1;jettySize=auto;html=1;exitX=0.5;exitY=1;exitDx=0;exitDy=0;entryX=0.5;entryY=0;entryDx=0;entryDy=0;endArrow=none;endFill=0;" parent="1" source="pxsL8ZpPABoNu5EpN0QS-34" target="2o8tJ9-CgRHtiqZwZskV-16" edge="1">
          <mxGeometry relative="1" as="geometry" />
        </mxCell>
        <mxCell id="pxsL8ZpPABoNu5EpN0QS-34" value="ID" style="ellipse;whiteSpace=wrap;html=1;align=center;fontStyle=4;fillColor=#dae8fc;strokeColor=#6c8ebf;" parent="1" vertex="1">
          <mxGeometry x="710" y="324" width="100" height="40" as="geometry" />
        </mxCell>
        <mxCell id="pxsL8ZpPABoNu5EpN0QS-35" value="(0,1)" style="text;html=1;align=center;verticalAlign=middle;resizable=0;points=[];autosize=1;strokeColor=none;fillColor=none;" parent="1" vertex="1">
          <mxGeometry x="335" y="161" width="50" height="30" as="geometry" />
        </mxCell>
        <mxCell id="pxsL8ZpPABoNu5EpN0QS-36" value="(0,1)" style="text;html=1;align=center;verticalAlign=middle;resizable=0;points=[];autosize=1;strokeColor=none;fillColor=none;" parent="1" vertex="1">
          <mxGeometry x="385" y="181" width="50" height="30" as="geometry" />
        </mxCell>
        <mxCell id="pxsL8ZpPABoNu5EpN0QS-37" value="1:1" style="text;html=1;align=center;verticalAlign=middle;resizable=0;points=[];autosize=1;strokeColor=none;fillColor=none;" parent="1" vertex="1">
          <mxGeometry x="538" y="118" width="40" height="30" as="geometry" />
        </mxCell>
        <mxCell id="pxsL8ZpPABoNu5EpN0QS-38" value="(1,n)" style="text;html=1;align=center;verticalAlign=middle;resizable=0;points=[];autosize=1;strokeColor=none;fillColor=none;" parent="1" vertex="1">
          <mxGeometry x="335" y="358" width="50" height="30" as="geometry" />
        </mxCell>
        <mxCell id="pxsL8ZpPABoNu5EpN0QS-39" value="(1,n)" style="text;html=1;align=center;verticalAlign=middle;resizable=0;points=[];autosize=1;strokeColor=none;fillColor=none;" parent="1" vertex="1">
          <mxGeometry x="336" y="231" width="50" height="30" as="geometry" />
        </mxCell>
        <mxCell id="pxsL8ZpPABoNu5EpN0QS-40" value="N:M" style="text;html=1;align=center;verticalAlign=middle;resizable=0;points=[];autosize=1;strokeColor=none;fillColor=none;" parent="1" vertex="1">
          <mxGeometry x="398" y="285" width="50" height="30" as="geometry" />
        </mxCell>
        <mxCell id="pxsL8ZpPABoNu5EpN0QS-41" value="(1,n)" style="text;html=1;align=center;verticalAlign=middle;resizable=0;points=[];autosize=1;strokeColor=none;fillColor=none;" parent="1" vertex="1">
          <mxGeometry x="392" y="395" width="50" height="30" as="geometry" />
        </mxCell>
        <mxCell id="pxsL8ZpPABoNu5EpN0QS-42" value="(1,1)" style="text;html=1;align=center;verticalAlign=middle;resizable=0;points=[];autosize=1;strokeColor=none;fillColor=none;" parent="1" vertex="1">
          <mxGeometry x="599" y="392" width="50" height="30" as="geometry" />
        </mxCell>
        <mxCell id="pxsL8ZpPABoNu5EpN0QS-43" value="N:1" style="text;html=1;align=center;verticalAlign=middle;resizable=0;points=[];autosize=1;strokeColor=none;fillColor=none;" parent="1" vertex="1">
          <mxGeometry x="499" y="364" width="40" height="30" as="geometry" />
        </mxCell>
        <mxCell id="pxsL8ZpPABoNu5EpN0QS-45" value="&lt;span style=&quot;color: rgb(0, 0, 0); font-family: Helvetica; font-size: 12px; font-style: normal; font-variant-ligatures: normal; font-variant-caps: normal; font-weight: 400; letter-spacing: normal; orphans: 2; text-align: center; text-indent: 0px; text-transform: none; widows: 2; word-spacing: 0px; -webkit-text-stroke-width: 0px; text-decoration-thickness: initial; text-decoration-style: initial; text-decoration-color: initial; float: none; display: inline !important; background-color: rgb(218, 232, 252);&quot;&gt;total occupied area&lt;/span&gt;" style="ellipse;whiteSpace=wrap;html=1;align=center;dashed=1;fillColor=#dae8fc;strokeColor=#6c8ebf;" parent="1" vertex="1">
          <mxGeometry x="590" y="325.5" width="100" height="40" as="geometry" />
        </mxCell>
        <mxCell id="pxsL8ZpPABoNu5EpN0QS-47" value="(0,1)" style="text;html=1;align=center;verticalAlign=middle;resizable=0;points=[];autosize=1;strokeColor=none;fillColor=none;" parent="1" vertex="1">
          <mxGeometry x="633" y="642" width="50" height="30" as="geometry" />
        </mxCell>
        <mxCell id="pxsL8ZpPABoNu5EpN0QS-48" value="(0,1)" style="text;html=1;align=center;verticalAlign=middle;resizable=0;points=[];autosize=1;strokeColor=none;fillColor=none;" parent="1" vertex="1">
          <mxGeometry x="785" y="645" width="50" height="30" as="geometry" />
        </mxCell>
        <mxCell id="K0QPw0AC-9hDVhbW-R28-3" style="edgeStyle=orthogonalEdgeStyle;rounded=0;orthogonalLoop=1;jettySize=auto;html=1;exitX=0.5;exitY=0;exitDx=0;exitDy=0;exitPerimeter=0;endArrow=none;endFill=0;entryX=0.482;entryY=1.003;entryDx=0;entryDy=0;entryPerimeter=0;" parent="1" source="pxsL8ZpPABoNu5EpN0QS-49" target="2o8tJ9-CgRHtiqZwZskV-16" edge="1">
          <mxGeometry relative="1" as="geometry">
            <mxPoint x="690" y="440" as="targetPoint" />
          </mxGeometry>
        </mxCell>
        <mxCell id="pxsL8ZpPABoNu5EpN0QS-49" value="are" style="strokeWidth=2;html=1;shape=mxgraph.flowchart.merge_or_storage;whiteSpace=wrap;fillColor=#ffe6cc;strokeColor=#d79b00;" parent="1" vertex="1">
          <mxGeometry x="649.5" y="455.5" width="80" height="49" as="geometry" />
        </mxCell>
        <mxCell id="pxsL8ZpPABoNu5EpN0QS-50" value="Sport complex" style="whiteSpace=wrap;html=1;align=center;fillColor=#b1ddf0;strokeColor=#10739e;" parent="1" vertex="1">
          <mxGeometry x="550.75" y="504.5" width="100" height="40" as="geometry" />
        </mxCell>
        <mxCell id="pxsL8ZpPABoNu5EpN0QS-70" style="edgeStyle=orthogonalEdgeStyle;rounded=0;orthogonalLoop=1;jettySize=auto;html=1;entryX=0.756;entryY=0.5;entryDx=0;entryDy=0;entryPerimeter=0;endArrow=none;endFill=0;" parent="1" source="pxsL8ZpPABoNu5EpN0QS-51" target="pxsL8ZpPABoNu5EpN0QS-49" edge="1">
          <mxGeometry relative="1" as="geometry">
            <mxPoint x="731" y="480" as="targetPoint" />
            <Array as="points">
              <mxPoint x="731" y="480" />
            </Array>
          </mxGeometry>
        </mxCell>
        <mxCell id="pxsL8ZpPABoNu5EpN0QS-51" value="Mutlisport complex" style="whiteSpace=wrap;html=1;align=center;fillColor=#b1ddf0;strokeColor=#10739e;" parent="1" vertex="1">
          <mxGeometry x="681" y="530" width="100" height="40" as="geometry" />
        </mxCell>
        <mxCell id="pxsL8ZpPABoNu5EpN0QS-52" style="rounded=0;orthogonalLoop=1;jettySize=auto;html=1;entryX=0.5;entryY=0;entryDx=0;entryDy=0;entryPerimeter=0;endArrow=none;endFill=0;" parent="1" source="pxsL8ZpPABoNu5EpN0QS-51" target="2o8tJ9-CgRHtiqZwZskV-18" edge="1">
          <mxGeometry relative="1" as="geometry" />
        </mxCell>
        <mxCell id="pxsL8ZpPABoNu5EpN0QS-54" value="location indicator" style="ellipse;whiteSpace=wrap;html=1;align=center;fillColor=#dae8fc;strokeColor=#6c8ebf;" parent="1" vertex="1">
          <mxGeometry x="649" y="270" width="100" height="40" as="geometry" />
        </mxCell>
        <mxCell id="pxsL8ZpPABoNu5EpN0QS-72" style="edgeStyle=orthogonalEdgeStyle;rounded=0;orthogonalLoop=1;jettySize=auto;html=1;entryX=0.189;entryY=0.496;entryDx=0;entryDy=0;entryPerimeter=0;endArrow=none;endFill=0;" parent="1" source="pxsL8ZpPABoNu5EpN0QS-50" target="pxsL8ZpPABoNu5EpN0QS-49" edge="1">
          <mxGeometry relative="1" as="geometry">
            <mxPoint x="600.75" y="470" as="targetPoint" />
            <Array as="points">
              <mxPoint x="601" y="480" />
              <mxPoint x="665" y="480" />
            </Array>
          </mxGeometry>
        </mxCell>
        <mxCell id="pxsL8ZpPABoNu5EpN0QS-75" value="(0,1)" style="text;html=1;align=center;verticalAlign=middle;resizable=0;points=[];autosize=1;strokeColor=none;fillColor=none;" parent="1" vertex="1">
          <mxGeometry x="726.5" y="500" width="50" height="30" as="geometry" />
        </mxCell>
        <mxCell id="pxsL8ZpPABoNu5EpN0QS-76" value="(0,1)" style="text;html=1;align=center;verticalAlign=middle;resizable=0;points=[];autosize=1;strokeColor=none;fillColor=none;" parent="1" vertex="1">
          <mxGeometry x="559" y="474" width="50" height="30" as="geometry" />
        </mxCell>
        <mxCell id="K0QPw0AC-9hDVhbW-R28-1" value="1:1" style="text;html=1;align=center;verticalAlign=middle;resizable=0;points=[];autosize=1;strokeColor=none;fillColor=none;" parent="1" vertex="1">
          <mxGeometry x="730" y="568" width="40" height="30" as="geometry" />
        </mxCell>
        <mxCell id="K0QPw0AC-9hDVhbW-R28-2" value="1:1" style="text;html=1;align=center;verticalAlign=middle;resizable=0;points=[];autosize=1;strokeColor=none;fillColor=none;" parent="1" vertex="1">
          <mxGeometry x="691" y="434" width="40" height="30" as="geometry" />
        </mxCell>
        <mxCell id="uIM1-cBb9AkmPgG77cUd-2" style="edgeStyle=orthogonalEdgeStyle;rounded=0;orthogonalLoop=1;jettySize=auto;html=1;entryX=0;entryY=0.5;entryDx=0;entryDy=0;endArrow=none;endFill=0;" edge="1" parent="1" source="uIM1-cBb9AkmPgG77cUd-1" target="2o8tJ9-CgRHtiqZwZskV-15">
          <mxGeometry relative="1" as="geometry">
            <mxPoint x="290" y="213" as="targetPoint" />
          </mxGeometry>
        </mxCell>
        <mxCell id="uIM1-cBb9AkmPgG77cUd-1" value="ID" style="ellipse;whiteSpace=wrap;html=1;align=center;fontStyle=4;fillColor=#dae8fc;strokeColor=#6c8ebf;" vertex="1" parent="1">
          <mxGeometry x="145" y="193" width="100" height="40" as="geometry" />
        </mxCell>
        <mxCell id="uIM1-cBb9AkmPgG77cUd-4" style="edgeStyle=orthogonalEdgeStyle;rounded=0;orthogonalLoop=1;jettySize=auto;html=1;exitX=1;exitY=0;exitDx=0;exitDy=0;entryX=0.03;entryY=0.8;entryDx=0;entryDy=0;entryPerimeter=0;" edge="1" parent="1" source="2o8tJ9-CgRHtiqZwZskV-16" target="pxsL8ZpPABoNu5EpN0QS-17">
          <mxGeometry relative="1" as="geometry" />
        </mxCell>
      </root>
    </mxGraphModel>
  </diagram>
</mxfile>
